<?xml version="1.0" encoding="UTF-8" standalone="no"?>
<!DOCTYPE svg PUBLIC "-//W3C//DTD SVG 1.1//EN" "http://www.w3.org/Graphics/SVG/1.1/DTD/svg11.dtd">
<!-- Created with Vectornator (http://vectornator.io/) -->
<svg height="100%" stroke-miterlimit="10" style="fill-rule:nonzero;clip-rule:evenodd;stroke-linecap:round;stroke-linejoin:round;" version="1.1" viewBox="0 0 1024 1024" width="100%" xml:space="preserve" xmlns="http://www.w3.org/2000/svg" xmlns:vectornator="http://vectornator.io" xmlns:xlink="http://www.w3.org/1999/xlink">
<defs/>
<g id="Calque-1" vectornator:layerName="Calque 1">
<path d="M315.5 285.5C287.886 285.5 265.5 307.886 265.5 335.5L265.5 735.5C265.5 763.114 287.886 785.5 315.5 785.5L715.5 785.5C743.114 785.5 765.5 763.114 765.5 735.5L765.5 335.5C765.5 307.886 743.114 285.5 715.5 285.5L315.5 285.5ZM332 335.5L692 335.5C703.046 335.5 712 344.454 712 355.5L712 715.5C712 726.546 703.046 735.5 692 735.5L332 735.5C320.954 735.5 312 726.546 312 715.5L312 355.5C312 344.454 320.954 335.5 332 335.5Z" fill="#ffffff" fill-rule="nonzero" opacity="1" stroke="#000000" stroke-linecap="butt" stroke-linejoin="miter" stroke-width="1.15935"/>
<path d="M765.5 248C765.5 219.557 788.557 196.5 817 196.5C845.443 196.5 868.5 219.557 868.5 248C868.5 276.443 845.443 299.5 817 299.5C788.557 299.5 765.5 276.443 765.5 248Z" fill="#ffffff" fill-rule="nonzero" opacity="1" stroke="#000000" stroke-linecap="butt" stroke-linejoin="miter" stroke-width="1.15935" vectornator:layerName="Ovale 1"/>
<path d="M425.607 427.894C432.32 421.181 443.037 421.014 449.544 427.521L449.59 427.567C456.097 434.074 455.93 444.791 449.217 451.504L353.393 547.328C346.68 554.041 335.963 554.208 329.456 547.701L329.41 547.655C322.903 541.148 323.07 530.431 329.783 523.718L425.607 427.894Z" fill="#ffffff" fill-rule="nonzero" opacity="1" stroke="none" vectornator:layerName="Rectangle 1"/>
<path d="M329.783 547.367C323.07 540.654 322.903 529.937 329.41 523.43L329.456 523.384C335.963 516.877 346.68 517.044 353.393 523.757L449.217 619.581C455.93 626.294 456.097 637.011 449.59 643.518L449.544 643.564C443.037 650.071 432.32 649.904 425.607 643.191L329.783 547.367Z" fill="#ffffff" fill-rule="nonzero" opacity="1" stroke="none" vectornator:layerName="Rectangle 2"/>
<path d="M607.321 428.266C600.81 421.356 590.103 420.87 583.405 427.18L583.358 427.225C576.66 433.535 576.508 444.252 583.018 451.162L675.946 549.797C682.457 556.707 693.164 557.193 699.862 550.883L699.909 550.838C706.607 544.528 706.759 533.811 700.249 526.901L607.321 428.266Z" fill="#ffffff" fill-rule="nonzero" opacity="1" stroke="none" vectornator:layerName="Rectangle 3"/>
<path d="M699.545 550.539C706.454 544.029 706.94 533.322 700.63 526.624L700.586 526.577C694.275 519.879 683.558 519.727 676.648 526.237L578.013 619.165C571.103 625.675 570.617 636.382 576.928 643.08L576.972 643.127C583.282 649.825 593.999 649.977 600.909 643.467L699.545 550.539Z" fill="#ffffff" fill-rule="nonzero" opacity="1" stroke="none" vectornator:layerName="Rectangle 4"/>
<path d="M538.316 393.362C540.449 385.456 548.587 380.777 556.492 382.91L556.829 383.001C564.734 385.134 569.413 393.272 567.28 401.177L492.684 677.638C490.551 685.544 482.413 690.223 474.508 688.09L474.171 687.999C466.266 685.866 461.587 677.728 463.72 669.823L538.316 393.362Z" fill="#ffffff" fill-rule="nonzero" opacity="1" stroke="#000000" stroke-linecap="butt" stroke-linejoin="miter" stroke-width="1.15935" vectornator:layerName="Rectangle 5"/>
</g>
</svg>
