<?xml version="1.0" encoding="UTF-8" standalone="no"?>
<!DOCTYPE svg PUBLIC "-//W3C//DTD SVG 1.1//EN" "http://www.w3.org/Graphics/SVG/1.1/DTD/svg11.dtd">
<!-- Created with Vectornator (http://vectornator.io/) -->
<svg height="100%" stroke-miterlimit="10" style="fill-rule:nonzero;clip-rule:evenodd;stroke-linecap:round;stroke-linejoin:round;" version="1.1" viewBox="0 0 1024 1024" width="100%" xml:space="preserve" xmlns="http://www.w3.org/2000/svg" xmlns:vectornator="http://vectornator.io" xmlns:xlink="http://www.w3.org/1999/xlink">
<defs/>
<g id="Calque-1" vectornator:layerName="Calque 1">
<path d="M311.792 289.882C284.178 289.882 261.792 312.268 261.792 339.882L261.792 739.882C261.792 767.497 284.178 789.882 311.792 789.882L711.792 789.882C739.407 789.882 761.792 767.497 761.792 739.882L761.792 339.882C761.792 312.268 739.407 289.882 711.792 289.882L311.792 289.882ZM328.292 339.882L688.292 339.882C699.338 339.882 708.292 348.837 708.292 359.882L708.292 719.882C708.292 730.928 699.338 739.882 688.292 739.882L328.292 739.882C317.247 739.882 308.292 730.928 308.292 719.882L308.292 359.882C308.292 348.837 317.247 339.882 328.292 339.882Z" fill="#ffffff" fill-rule="nonzero" opacity="1" stroke="#000000" stroke-linecap="butt" stroke-linejoin="miter" stroke-width="1.15935"/>
<path d="M761.792 252.382C761.792 223.94 784.85 200.882 813.292 200.882C841.735 200.882 864.792 223.94 864.792 252.382C864.792 280.825 841.735 303.882 813.292 303.882C784.85 303.882 761.792 280.825 761.792 252.382Z" fill="#ffffff" fill-rule="nonzero" opacity="1" stroke="#000000" stroke-linecap="butt" stroke-linejoin="miter" stroke-width="1.15935" vectornator:layerName="Ovale 1"/>
<path d="M455.406 613.016C455.406 598.041 468 585.9 483.536 585.9L544.334 585.9C559.87 585.9 572.465 598.041 572.465 613.016L572.465 700.168C573.502 734.748 586.484 737.563 581.52 742.453C576.413 747.483 551.501 746.49 543.623 746.49L482.825 746.49C472.85 746.49 457.866 750.182 441.658 741.827C437.093 739.474 455.732 738.178 455.406 700.168L455.406 613.016Z" fill="#ffffff" fill-rule="nonzero" opacity="1" stroke="#ffffff" stroke-linecap="butt" stroke-linejoin="miter" stroke-width="1.15935" vectornator:layerName="Rectangle 1"/>
<path d="M340.296 597.942L356.563 604.603C358.309 605.319 360.642 607.124 361.774 608.635L364.041 611.665L379.425 632.22C380.556 633.731 383.001 635.047 384.885 635.16L410.968 636.722C412.853 636.835 415.817 636.401 417.591 635.754L454.915 622.119L454.915 622.119L455.798 647.854C455.863 649.74 454.443 651.687 452.626 652.201L402.704 666.338C400.887 666.853 398.044 666.589 396.353 665.75L370.24 652.789C368.549 651.95 366.66 649.83 366.021 648.054L360.402 632.443C359.762 630.667 358.385 627.961 357.325 626.399L339.052 599.475C337.992 597.913 338.549 597.226 340.296 597.942Z" fill="#ffffff" fill-rule="nonzero" opacity="1" stroke="#ffffff" stroke-linecap="butt" stroke-linejoin="miter" stroke-width="1.15935" vectornator:layerName="Rectangle 2"/>
<path d="M401.474 519.348C401.474 494.921 413.17 477.343 415.165 475.167C418.678 471.334 407.6 424.65 411.755 421.081C416.273 417.202 454.145 436.579 460.117 434.501C482.816 426.601 482.462 424.659 507.486 424.659C525.933 424.659 531.568 423.948 554.098 434.748C559.36 437.271 596.659 409.517 601.458 412.301C606.88 415.447 600.431 461.445 604.914 465.291C620.657 478.793 622.526 489.309 622.526 508.404C622.526 551.175 574.881 585.848 516.109 585.848C481.988 585.848 466.307 587.401 445.254 573.662C428.72 562.872 421.364 561.78 415.831 554.688C401.474 536.286 401.474 536.238 401.474 519.348Z" fill="#ffffff" fill-rule="nonzero" opacity="1" stroke="#ffffff" stroke-linecap="butt" stroke-linejoin="miter" stroke-width="1.15935" vectornator:layerName="Ovale 2"/>
</g>
</svg>
