<?xml version="1.0" encoding="UTF-8" standalone="no"?>
<!DOCTYPE svg PUBLIC "-//W3C//DTD SVG 1.1//EN" "http://www.w3.org/Graphics/SVG/1.1/DTD/svg11.dtd">
<!-- Created with Vectornator (http://vectornator.io/) -->
<svg height="100%" stroke-miterlimit="10" style="fill-rule:nonzero;clip-rule:evenodd;stroke-linecap:round;stroke-linejoin:round;" version="1.1" viewBox="0 0 1024 1024" width="100%" xml:space="preserve" xmlns="http://www.w3.org/2000/svg" xmlns:vectornator="http://vectornator.io" xmlns:xlink="http://www.w3.org/1999/xlink">
<defs/>
<g id="Calque-1" vectornator:layerName="Calque 1">
<path d="M311.792 289.882C284.178 289.882 261.792 312.268 261.792 339.882L261.792 739.882C261.792 767.497 284.178 789.882 311.792 789.882L711.792 789.882C739.407 789.882 761.792 767.497 761.792 739.882L761.792 339.882C761.792 312.268 739.407 289.882 711.792 289.882L311.792 289.882ZM328.292 339.882L688.292 339.882C699.338 339.882 708.292 348.837 708.292 359.882L708.292 719.882C708.292 730.928 699.338 739.882 688.292 739.882L328.292 739.882C317.247 739.882 308.292 730.928 308.292 719.882L308.292 359.882C308.292 348.837 317.247 339.882 328.292 339.882Z" fill="#ffffff" fill-rule="nonzero" opacity="1" stroke="#000000" stroke-linecap="butt" stroke-linejoin="miter" stroke-width="1.15935"/>
<path d="M761.792 252.382C761.792 223.94 784.85 200.882 813.292 200.882C841.735 200.882 864.792 223.94 864.792 252.382C864.792 280.825 841.735 303.882 813.292 303.882C784.85 303.882 761.792 280.825 761.792 252.382Z" fill="#ffffff" fill-rule="nonzero" opacity="1" stroke="#000000" stroke-linecap="butt" stroke-linejoin="miter" stroke-width="1.15935" vectornator:layerName="Ovale 1"/>
<path d="M361.967 503.882C361.967 482.619 379.204 465.382 400.467 465.382L400.467 465.382C421.73 465.382 438.967 482.619 438.967 503.882L438.967 673.882C438.967 695.145 421.73 712.382 400.467 712.382L400.467 712.382C379.204 712.382 361.967 695.145 361.967 673.882L361.967 503.882Z" fill="#ffffff" fill-rule="nonzero" opacity="1" stroke="#ffffff" stroke-linecap="butt" stroke-linejoin="miter" stroke-width="1.15935" vectornator:layerName="Rectangle 1"/>
<path d="M469.759 500.146C469.759 480.947 485.324 465.382 504.523 465.382L505.203 465.382C524.403 465.382 539.967 480.947 539.967 500.146L539.967 677.619C539.967 696.818 524.403 712.382 505.203 712.382L504.523 712.382C485.324 712.382 469.759 696.818 469.759 677.619L469.759 500.146Z" fill="#ffffff" fill-rule="nonzero" opacity="1" stroke="#ffffff" stroke-linecap="butt" stroke-linejoin="miter" stroke-width="1.15935" vectornator:layerName="Rectangle 2"/>
<path d="M556.725 481.882L627.133 481.882C646.408 481.882 662.033 497.508 662.033 516.782L662.033 677.483C662.033 696.757 646.408 712.382 627.133 712.382L626.725 712.382C607.45 712.382 591.825 696.757 591.825 677.483L591.825 569.041C591.825 549.767 579.305 524.794 563.859 513.263L549.791 502.761C534.346 491.23 537.45 481.882 556.725 481.882Z" fill="#ffffff" fill-rule="nonzero" opacity="1" stroke="#ffffff" stroke-linecap="butt" stroke-linejoin="miter" stroke-width="1.15935" vectornator:layerName="Rectangle 3"/>
<path d="M361.967 406.882C361.967 385.067 379.652 367.382 401.467 367.382C423.282 367.382 440.967 385.067 440.967 406.882C440.967 428.698 423.282 446.382 401.467 446.382C379.652 446.382 361.967 428.698 361.967 406.882Z" fill="#ffffff" fill-rule="nonzero" opacity="1" stroke="#ffffff" stroke-linecap="butt" stroke-linejoin="miter" stroke-width="1.15935" vectornator:layerName="Ovale 2"/>
</g>
</svg>
