<?xml version="1.0" encoding="UTF-8" standalone="no"?>
<!DOCTYPE svg PUBLIC "-//W3C//DTD SVG 1.1//EN" "http://www.w3.org/Graphics/SVG/1.1/DTD/svg11.dtd">
<!-- Created with Vectornator (http://vectornator.io/) -->
<svg height="100%" stroke-miterlimit="10" style="fill-rule:nonzero;clip-rule:evenodd;stroke-linecap:round;stroke-linejoin:round;" version="1.1" viewBox="0 0 3419 1183" width="100%" xml:space="preserve" xmlns="http://www.w3.org/2000/svg" xmlns:vectornator="http://vectornator.io" xmlns:xlink="http://www.w3.org/1999/xlink">
<defs/>
<clipPath id="ArtboardFrame">
<rect height="1183" width="3419" x="0" y="0"/>
</clipPath>
<g clip-path="url(#ArtboardFrame)" id="Calque-1" vectornator:layerName="Calque 1">
<path d="M1685.7 784.486C1676.35 793.832 1659.3 800.453 1653.98 784.486C1641.47 784.486 1600.95 767.405 1590.54 777.808C1629.61 816.878 1659.49 868.165 1694.05 911.363C1739.55 865.857 1774.01 806.401 1814.25 756.106C1818.4 750.918 1850.95 706.169 1852.64 706.023C1876.48 703.95 1900.52 704.96 1924.43 706.023C1926 706.092 1927.74 707.788 1927.77 709.361C1928.86 764.999 1926.68 820.668 1927.77 876.305C1927.8 877.878 1929.99 878.531 1931.11 879.644C1943.67 873.361 1964.61 883.762 1979.52 876.305C1992.62 869.757 2004.22 856.5 2014.58 849.594C2022.51 844.304 2036.77 848.813 2044.63 842.916C2063.32 828.901 2085.03 822.714 2104.73 812.866C2121.52 804.469 2129.45 794.164 2148.13 789.494C2152.87 788.309 2179.14 706.176 2183.19 706.023C2211.55 704.952 2239.97 704.952 2268.33 706.023C2273.24 706.208 2278.46 728.826 2280.02 732.733C2291.99 762.666 2303.1 792.944 2315.08 822.883C2363.05 942.821 2414.45 1060.91 2455.31 1183.48C2525.43 1184.32 2525.43 1184.32 2595.54 1185.15C2588.03 1170.13 2561.03 1153.98 2550.47 1143.41C2521.85 1114.8 2507.46 1056.69 2507.06 1018.21C2506.01 915.262 2504.84 812.31 2505.39 709.361C2505.4 707.787 2507.16 706.089 2508.73 706.023C2533.75 704.958 2558.84 704.958 2583.86 706.023C2585.43 706.089 2587.18 707.788 2587.19 709.361C2588.3 812.86 2586.66 916.373 2587.19 1019.88C2587.63 1104.09 2672.67 1150.84 2749.13 1131.73C2799.13 1119.23 2832.09 1070.16 2832.6 1019.88C2833.66 916.375 2832.62 812.855 2834.27 709.361C2834.3 707.788 2836.04 706.089 2837.61 706.023C2862.63 704.958 2887.71 704.958 2912.73 706.023C2914.31 706.089 2916.06 707.788 2916.07 709.361C2917.17 811.747 2916.6 914.147 2916.07 1016.54C2915.71 1086.86 2878.88 1142.51 2824.25 1183.48C2927.76 1184.32 2927.76 1184.32 3031.26 1185.15C3031.82 1026.55 3030.73 867.943 3032.93 709.361C3033.1 697.361 3092.22 700.794 3111.4 706.023C3112.91 706.437 3114.72 707.788 3114.74 709.361C3115.84 867.397 3114.74 1025.44 3114.74 1183.48C3264.98 1184.32 3264.98 1184.32 3415.23 1185.15C3415.23 877.974 3415.23 877.974 3415.23 570.798C3389.19 583.823 3336.84 604.246 3311.73 584.154C3305.41 590.472 3309.78 599.64 3305.05 607.526C3287.58 636.652 3274.94 664.287 3238.27 664.287C3223.79 664.287 3209.31 663.649 3194.87 662.617C3192.2 662.427 3185.29 659.42 3183.18 657.609C3172.13 648.138 3172.9 635.645 3163.15 625.89C3164.82 624.22 3164.82 624.22 3166.49 622.551C3184.23 640.297 3205.06 631.069 3219.91 645.923C3221.58 645.088 3221.58 645.088 3223.25 644.254C3237.45 658.457 3248.59 644.131 3258.31 635.906C3267.85 627.833 3292.37 606.515 3298.37 597.509C3307.58 583.693 3296.51 555.97 3308.39 544.088C3310.89 546.592 3310.89 546.592 3313.4 549.096C3329.42 541.083 3335.53 574.029 3346.79 575.807C3380.58 581.142 3391.24 555.774 3415.23 555.774C3415.23 525.724 3415.23 525.724 3415.23 495.674C3407.88 493.836 3396.3 495.109 3391.86 490.666C3382.45 495.372 3374.81 486.97 3368.49 480.649C3352.82 488.485 3304.4 464.602 3283.35 485.657C3287.57 489.876 3285.98 487.588 3288.36 492.335C3286.69 494.005 3286.69 494.005 3285.02 495.674C3251.14 461.795 3229.12 445.591 3178.17 445.591C3173.84 445.591 3172.47 447.954 3169.83 450.599C3171.5 452.269 3171.5 452.269 3173.17 453.938C3164.85 462.25 3147.5 456.231 3138.11 465.624C3143.02 470.537 3146.55 467.389 3151.46 472.302C3143.47 480.29 3132.74 470.992 3124.75 478.98C3126.42 480.649 3126.42 480.649 3128.09 482.318C3126.42 483.988 3126.42 483.988 3124.75 485.657C3114.43 480.496 3103.81 480.032 3099.71 492.335C3098.04 491.5 3098.04 491.5 3096.37 490.666C3093.87 493.17 3093.87 493.17 3091.36 495.674C3054.46 477.222 3027.7 528.654 3004.55 544.088C3002.88 542.418 3002.88 542.418 3001.21 540.749C3012.07 529.896 3034.11 504.999 3039.61 494.005C3037.11 491.5 3037.11 491.5 3034.6 488.996C3019.2 496.696 3006.42 498.884 2991.2 509.029C2989.53 507.36 2989.53 507.36 2987.86 505.691C2998.88 489.162 3018.72 493.197 3031.26 480.649C3014.71 464.097 2989.69 490.823 2974.5 475.641C2982.98 467.165 2998.11 473.732 3007.89 463.955C3002.5 458.567 2995.2 453.608 2987.86 457.277C2986.19 455.608 2986.19 455.608 2984.52 453.938C2986.19 452.269 2986.19 452.269 2987.86 450.599C2998.14 455.741 3015.33 446.351 3027.92 458.946C3040.51 446.363 3026.1 436.938 3019.58 423.888C3021.25 422.219 3021.25 422.219 3022.92 420.549C3031 428.635 3051.64 458.598 3062.98 447.26C3060.04 441.366 3064.88 408.557 3062.98 397.177C3061.66 389.25 3048.58 373.185 3054.64 367.128C3087.4 383.509 3063.83 414.718 3084.69 435.574C3089.01 431.252 3088.36 426.888 3093.03 422.219C3096.37 425.558 3096.37 425.558 3099.71 428.897C3109.48 419.131 3104.78 422.732 3113.07 417.211C3110.44 411.96 3114.63 381.868 3116.4 377.144C3118.42 371.762 3127.58 369.308 3131.43 365.458C3123.55 353.632 3130.22 354.985 3143.12 342.086C3167 354.026 3167.33 321.211 3174.83 313.706C3181.28 320.156 3194.3 310.939 3199.88 305.359C3184.2 289.682 3261.53 214.302 3275 203.523C3273.33 201.854 3273.33 201.854 3271.66 200.184C3281.58 180.341 3261.51 188.747 3243.28 186.829C3237.85 186.257 3231.19 161.386 3226.59 156.779C3208.66 174.71 3173.61 187.458 3163.15 211.87C3159.8 219.678 3172.22 226.236 3176.5 233.573C3181.97 242.938 3182.57 271.979 3181.51 281.986C3181.35 283.552 3179.29 284.212 3178.17 285.325C3171.06 279.99 3165.23 271.153 3169.83 261.953C3168.16 260.284 3168.16 260.284 3166.49 258.614C3175.72 240.155 3141.46 241.691 3134.77 236.912C3126.04 230.68 3130.58 229.382 3124.75 223.556C3125.59 221.887 3125.59 221.887 3126.42 220.217C3116.16 209.957 3093.07 226.885 3081.35 230.234C3072.12 232.87 3060.06 226.228 3052.97 231.903C3041.49 241.083 3033.74 266.558 3022.92 271.97C3001.78 282.537 2993.93 278.717 2979.51 300.35C2965.01 285.851 2977.56 269.858 2989.53 260.284C2988.69 258.614 2988.69 258.614 2987.86 256.945C2996.49 248.312 3002.11 210.201 3017.91 210.201C3027.38 210.201 3096.48 199.962 3098.04 196.845C3106.25 180.425 3064.59 189.424 3059.64 183.49C3038.8 158.476 3022.44 129.437 3002.88 103.357C2991.47 114.768 2974.81 123.178 2969.49 138.415C2964.55 152.602 2970.53 168.501 2969.49 183.49C2968.88 192.372 2941.27 192.136 2941.11 183.49C2940.02 124.513 2941.11 65.5166 2941.11 6.52991C2918.58 5.6952 2918.58 5.6952 2896.04 4.86048C2895.48 64.4036 2896.01 123.967 2894.37 183.49C2894.13 192.23 2866.15 192.183 2865.99 183.49C2864.9 124.513 2865.99 65.5166 2865.99 6.52991C2818.41 5.6952 2818.41 5.6952 2770.83 4.86048C2770.83 36.6183 2806.53 103.299 2819.25 135.076C2824.34 147.817 2840.27 173.838 2835.94 186.829C2821.58 186.829 2814.49 192.731 2807.56 183.49C2804.01 178.751 2801.67 152.069 2794.2 151.771C2767.51 150.703 2740.74 150.202 2714.07 151.771C2698.34 152.696 2720.06 192.97 2674 186.829C2665.57 185.704 2683.51 145.542 2685.69 140.085C2703.55 95.4365 2722.47 51.455 2737.44 6.52991C2712.96 5.97343 2688.21 1.20508 2663.99 4.86048C2656.98 5.91761 2653.88 14.7835 2648.96 19.8854C2639.41 29.8098 2630.04 39.9186 2620.58 49.9352C2611.12 59.9518 2601.13 69.4872 2592.2 79.985C2590.11 82.4506 2606.9 102.033 2608.9 105.026C2626.25 131.056 2650.01 155.541 2663.99 183.49C2633.55 213.929 2587.47 125.423 2572.17 105.026C2560.48 116.156 2543.69 123.681 2537.11 138.415C2530.98 152.133 2538.15 168.501 2537.11 183.49C2536.5 192.372 2508.89 192.136 2508.73 183.49C2507.64 124.513 2508.73 65.5166 2508.73 6.52991C2493.71 5.97343 2478.68 4.32385 2463.66 4.86048C2461.49 4.93788 2461.99 10.7625 2461.99 11.5382C2461.99 26.5631 2461.99 41.588 2461.99 56.6129C2461.99 80.772 2457.64 109.351 2463.66 133.407C2467.71 149.612 2463.65 166.869 2461.99 183.49C2461.05 192.88 2432.02 192.45 2431.94 183.49C2431.39 124.503 2433.05 65.5166 2433.61 6.52991C2143.68 5.97343 1853.76 4.30507 1563.83 4.86048C1558.45 4.87079 1542.04 42.8473 1538.79 48.2658C1510.82 94.8786 1486.16 144.322 1458.66 190.168C1440.9 219.769 1406.42 261.292 1411.91 297.011C1412.6 301.5 1429.71 307.853 1433.62 313.706C1445.94 332.187 1457.63 360.316 1462 382.152C1469.16 417.965 1465.5 466.015 1470.34 502.352C1473.18 523.61 1500.03 532.725 1505.4 552.435C1510.19 569.986 1521.85 583.176 1525.43 597.509C1531.72 622.64 1532.04 643.889 1537.12 670.964C1537.9 675.117 1543.22 674.287 1545.47 675.973C1548.94 678.579 1549.85 695.808 1550.48 697.675C1552.06 702.434 1555.67 700.321 1558.82 702.684C1572.4 712.865 1576.26 738.633 1595.55 744.42C1625.12 753.291 1659.28 764.669 1685.7 784.486Z" fill="#4ad1ff" fill-rule="nonzero" opacity="1" stroke="#000000" stroke-linecap="butt" stroke-linejoin="miter" stroke-width="1.15935"/>
<path d="M263.343 4.86048C267.138 16.2452 286.739 24.918 295.062 33.2408C305.567 43.7461 312.784 59.3736 316.765 73.3073C323.537 97.011 325.112 120.13 325.112 145.093C325.112 165.199 315.922 189.551 303.409 205.193C241.823 282.176 159.882 252.83 66.3497 263.623C64.7861 263.803 63.0454 265.388 63.0108 266.962C61.9226 316.476 62.5253 366.017 63.0108 415.541C63.0988 424.514 68.5973 441.329 59.6719 442.252C45.2803 443.741 30.7295 441.85 16.2667 442.252C10.6763 442.407 5.13712 443.365-0.427658 443.921C-1.26237 814.536-1.26237 814.536-2.09709 1185.15C728.28 1185.15 728.28 1185.15 1458.66 1185.15C1459.21 1047.14 1460.88 909.137 1460.33 771.13C1460.29 762.826 1418.91 762.293 1418.59 771.13C1417.52 800.604 1419.66 830.137 1418.59 859.61C1418.53 861.183 1416.82 862.864 1415.25 862.949C1403.71 863.573 1353.86 875.773 1353.48 856.272C1352.95 828.447 1353.91 800.55 1351.81 772.8C1351.64 770.446 1349.17 767.847 1346.81 767.792C1301.18 766.718 1255.54 768.701 1209.91 769.461C1188.76 769.814 1167.62 771.659 1146.47 771.13C1144.9 771.091 1143.32 769.355 1143.13 767.792C1141.18 751.202 1140.48 734.383 1141.46 717.709C1141.81 711.76 1175.98 668.72 1181.53 660.948C1218.68 608.935 1254.57 555.563 1290.04 502.352C1297.89 490.578 1338.22 441.335 1338.46 430.566C1339.62 378.267 1338.76 325.914 1336.79 273.639C1336.28 260.207 1310.79 230.868 1303.4 218.548C1272.86 167.649 1243.8 115.87 1213.25 64.9601C1209.88 59.3359 1179.13 4.89518 1178.19 4.86048C1134.26 3.23338 1090.27 4.86048 1046.31 4.86048C1042.25 17.0464 1073.35 80.8037 1079.7 96.6793C1112.82 179.483 1145.07 262.618 1178.19 345.425C1184.57 361.371 1214.19 421.074 1209.91 433.905C1184.87 433.905 1159.78 435.467 1134.79 433.905C1131 433.668 1102.72 347.348 1096.39 347.094C1056.36 345.493 1016.24 346.012 976.191 347.094C974.618 347.137 973.437 348.972 972.852 350.433C969.44 358.963 977.206 373.316 977.86 382.152C980.468 417.357 979.211 429.406 962.835 455.608C959.016 461.719 961.896 469.903 956.158 475.641C946.383 465.866 954.096 438.496 954.488 425.558C955.011 408.306 956.158 391.065 956.158 373.805C956.158 368.185 960.229 349.52 951.149 348.764C931.116 347.094 903.608 338.075 891.05 353.772C884.575 361.866 866.391 436.93 859.331 437.244C835.426 438.306 811.45 438.306 787.545 437.244C785.973 437.174 784.91 435.313 784.206 433.905C782.408 430.309 819.73 336.747 824.273 325.392C866.232 220.492 908.745 113.71 944.472 6.52991C816.76 5.6952 816.76 5.6952 689.048 4.86048C692.461 15.0984 712.576 26.7182 719.098 33.2408C749.214 63.357 751.579 127.023 742.47 163.457C736.255 188.318 717.41 218.893 695.726 231.903C690.013 235.331 658.847 246.322 660.668 253.606C665.178 271.648 682.734 292.608 692.387 308.697C716.74 349.285 741.341 391.58 762.503 433.905C761.391 435.018 760.737 437.182 759.165 437.244C731.918 438.312 704.585 438.814 677.362 437.244C675.005 437.108 673.829 434.079 672.354 432.235C641.32 393.443 631.601 337.831 602.238 298.681C597.737 292.679 587.716 259.23 580.535 258.614C562.239 257.046 543.805 258.313 525.444 258.614C509.855 258.87 494.214 258.732 478.7 260.284C477.134 260.44 475.4 262.049 475.361 263.623C474.276 307.014 475.361 350.433 475.361 393.838C475.361 407.762 477.587 421.662 477.03 435.574C476.967 437.147 475.261 438.797 473.691 438.913C459.818 439.941 445.863 438.574 431.956 438.913C421.927 439.158 402.163 447.273 401.906 437.244C398.228 293.8 400.999 150.046 398.567 6.52991C330.955 5.6952 330.955 5.6952 263.343 4.86048Z" fill="#4ad1ff" fill-rule="nonzero" opacity="1" stroke="#000000" stroke-linecap="butt" stroke-linejoin="miter" stroke-width="1.15935"/>
<path d="M1543.8 839.577C1542.69 840.69 1540.47 841.342 1540.46 842.916C1539.36 956.432 1540.46 1069.96 1540.46 1183.48C1693.21 1184.32 1693.21 1184.32 1845.97 1185.15C1846.52 1071.07 1848.19 956.994 1847.64 842.916C1847.63 841.342 1845.41 840.69 1844.3 839.577C1787.84 896.036 1743.97 969.165 1694.05 1031.56C1637.63 975.145 1593.7 901.952 1543.8 839.577Z" fill="#4ad1ff" fill-rule="nonzero" opacity="1" stroke="#000000" stroke-linecap="butt" stroke-linejoin="miter" stroke-width="1.15935"/>
<path d="M3315.07 115.043C3299.78 130.331 3273.15 132.971 3254.97 145.093C3262.37 159.903 3276.14 184.554 3268.32 200.184C3269.99 201.854 3269.99 201.854 3271.66 203.523C3259.58 215.608 3178.02 286.846 3196.54 305.359C3191.09 310.805 3187.61 307.606 3181.51 313.706C3170.62 302.81 3195.72 256.124 3178.17 238.581C3184.5 225.938 3159.28 224.475 3166.49 211.87C3181.02 186.431 3210.07 178.446 3229.93 156.779C3228.81 155.109 3228.59 151.888 3226.59 151.771C3199.37 150.169 3172.03 150.702 3144.79 151.771C3136.66 152.089 3138.67 185.507 3128.09 186.829C3120.97 187.719 3100.25 182.95 3093.03 190.168C3093.87 191.837 3093.87 191.837 3094.7 193.506C3081.09 207.122 3065.73 194.936 3049.63 198.515C3040.11 200.63 3028.5 206.862 3017.91 206.862C2995.18 206.862 2996.63 244.836 2984.52 256.945C2985.35 258.614 2985.35 258.614 2986.19 260.284C2967.65 278.82 2968.44 293.938 2984.52 315.375C2986.19 313.706 2986.19 313.706 2987.86 312.036C2970.76 277.833 3011.34 283.58 3022.92 275.309C3035.18 266.55 3041.77 246.434 3052.97 235.242C3059.83 228.378 3071.74 235.242 3079.68 235.242C3108.26 235.242 3112.04 199.804 3133.1 241.92C3141.09 237.925 3168.49 247.927 3163.15 258.614C3164.82 260.284 3164.82 260.284 3166.49 261.953C3161.97 270.983 3166.77 278.927 3173.17 285.325C3166.28 299.093 3172.72 317.519 3166.49 332.069C3162.55 341.259 3107.27 342.963 3128.09 363.789C3124.47 367.41 3115.12 371.368 3113.07 375.475C3111.73 378.152 3114.74 391.188 3114.74 392.169C3114.74 405.07 3106.9 415.97 3099.71 425.558C3098.04 423.888 3098.04 423.888 3096.37 422.219C3086.89 431.701 3097.25 433.025 3083.02 447.26C3084.69 448.93 3084.69 448.93 3086.35 450.599C3100.82 436.687 3114.34 421.713 3129.76 408.863C3144.13 396.892 3143.18 435.452 3141.45 438.913C3143.12 440.583 3143.12 440.583 3144.79 442.252C3152.99 438.147 3167.46 428.469 3171.5 440.583C3187.89 440.583 3213.79 429.457 3226.59 442.252C3221.83 447.01 3224.12 444.281 3219.91 450.599C3230.55 461.244 3292.76 486.872 3283.35 505.691C3293.58 515.922 3290.84 534.881 3301.71 545.757C3298.2 552.782 3299.89 557.288 3305.05 562.451C3326.5 540.998 3299.06 508.741 3288.36 487.327C3293.22 482.461 3301.53 482.89 3308.39 482.318C3325.03 480.932 3343.13 475.742 3358.47 482.318C3366.28 485.665 3382.07 498.898 3391.86 494.005C3398.13 500.27 3405.48 495.323 3413.56 497.343C3414.12 471.745 3415.77 446.148 3415.23 420.549C3415.21 419.394 3383.26 404.885 3375.17 402.186C3375.17 388.185 3368.76 377.685 3363.48 367.128C3377.72 352.884 3355.92 337.211 3346.79 327.061C3345.12 327.896 3345.12 327.896 3343.45 328.731C3337.82 323.101 3335.31 316.171 3328.42 312.036C3320.94 307.549 3307.49 307.799 3303.38 303.689C3307.88 299.189 3316.82 293.838 3313.4 286.995C3350.09 250.301 3350.13 201.456 3350.13 151.771C3350.13 142.798 3350.8 133.085 3346.79 125.06C3351.58 120.27 3352.56 108.749 3345.12 105.026C3338.11 101.525 3325.23 120.125 3315.07 115.043Z" fill="#3ebde7" fill-rule="nonzero" opacity="1" stroke="#000000" stroke-linecap="butt" stroke-linejoin="miter" stroke-width="1.15935"/>
<path d="M3203.22 4.86048C3203.22 24.1641 3245.07 131.855 3258.31 145.093C3266.38 139.712 3267.66 145.761 3275 138.415C3282.55 142.188 3309.05 124.401 3315.07 118.382C3316.74 119.217 3316.74 119.217 3318.41 120.051C3326.08 112.375 3332.89 115.032 3341.78 108.365C3347.55 114.135 3349.85 118.654 3343.45 125.06C3351.8 141.756 3348.46 180.023 3348.46 200.184C3348.46 205.701 3339.42 215.987 3338.44 221.887C3337.25 229.044 3343.35 237.1 3340.11 243.589C3334.75 254.308 3305.5 277.869 3311.73 290.334C3303.85 298.208 3297.94 297.449 3291.7 303.689C3306.93 318.926 3324.69 303.935 3343.45 332.069C3345.12 331.235 3345.12 331.235 3346.79 330.4C3355.97 339.585 3372.88 354.393 3360.14 367.128C3364.22 375.278 3361.19 378.399 3371.83 385.491C3359.6 409.944 3401.21 416.04 3413.56 422.219C3414.4 213.54 3414.4 213.54 3415.23 4.86048C3309.22 4.86048 3309.22 4.86048 3203.22 4.86048Z" fill="#4ad1ff" fill-rule="nonzero" opacity="1" stroke="#000000" stroke-linecap="butt" stroke-linejoin="miter" stroke-width="1.15935"/>
<path d="M2139.79 799.511C2131.61 807.686 2109.21 826.004 2099.72 829.561C2096.59 830.733 2092.53 827.791 2089.7 829.561C2071.9 840.689 2051.79 858.37 2036.28 871.296C2024.3 881.284 2003.52 877.498 1992.88 889.66C1975.19 909.872 1996.5 922.619 1982.86 943.082C1970.64 930.86 1971.56 907.285 1954.48 903.016C1915.35 893.233 1927.77 919.234 1927.77 949.76C1927.77 1027.67 1927.77 1105.57 1927.77 1183.48C1961.99 1184.32 1961.99 1184.32 1996.21 1185.15C2028.87 1087.19 2069.72 990.529 2108.07 894.669C2114.06 879.691 2145.86 808.62 2139.79 799.511Z" fill="#4ad1ff" fill-rule="nonzero" opacity="1" stroke="#000000" stroke-linecap="butt" stroke-linejoin="miter" stroke-width="1.15935"/>
<path d="M1421.93 293.672C1419.09 296.51 1412.66 296.408 1411.91 300.35C1409.93 310.737 1410.91 321.544 1411.91 332.069C1412.64 339.677 1419.08 330.903 1420.26 338.747C1421.94 349.942 1420.52 384.478 1421.93 397.177C1422.46 401.935 1429.49 404.142 1430.28 408.863C1439.9 466.586 1439.14 528.491 1443.63 589.162C1445.27 611.327 1467.97 661.651 1451.98 677.642C1458.03 683.696 1462.55 678.635 1468.67 685.989C1470.46 688.133 1479.38 705.788 1482.03 706.023C1499.77 707.588 1517.71 704.502 1535.45 706.023C1540.57 706.461 1582.48 768.08 1590.54 776.139C1591.1 776.698 1640.54 783.03 1645.63 784.486C1655.91 787.422 1675.67 817.899 1689.04 784.486C1693.24 773.972 1672.24 771.097 1667.34 769.461C1663.96 768.334 1664.1 762.051 1660.66 761.114C1650.11 758.236 1628.56 759.192 1618.92 752.767C1614.65 749.921 1613.71 742.882 1608.91 741.081C1603.13 738.913 1593.85 739.987 1588.87 736.072C1574.27 724.597 1545.99 685.32 1540.46 667.626C1533.94 646.769 1553.69 620.76 1535.45 602.518C1533.78 604.187 1533.78 604.187 1532.11 605.857C1516.97 590.713 1511.91 559.823 1503.73 540.749C1499.01 529.741 1481.75 525.86 1477.02 514.038C1472.61 502.999 1475.72 489.532 1473.68 477.31C1472.93 472.811 1467.14 466.855 1467 460.616C1465.65 398.244 1466.72 338.463 1421.93 293.672Z" fill="#94e1ff" fill-rule="nonzero" opacity="1" stroke="#000000" stroke-linecap="butt" stroke-linejoin="miter" stroke-width="1.15935"/>
<path d="M495.394 54.9435C487.97 54.962 473.884 52.5299 473.691 59.9518C472.608 101.674 471.581 143.477 473.691 185.159C473.851 188.303 477.36 190.911 480.369 191.837C521.858 204.603 567.192 191.325 610.585 190.168C619.874 189.92 634.606 186.31 642.304 180.151C676.925 152.455 688.907 74.1067 632.288 59.9518C626.713 58.558 617.796 56.7587 612.254 56.6129C573.311 55.5881 534.351 54.8462 495.394 54.9435Z" fill="#4ad1ff" fill-rule="nonzero" opacity="1" stroke="#000000" stroke-linecap="butt" stroke-linejoin="miter" stroke-width="1.15935"/>
<path d="M64.6803 58.2824C63.1064 58.3031 61.3817 60.0478 61.3414 61.6212C60.2573 103.9 59.7365 146.236 61.3414 188.498C61.431 190.857 63.9906 193.412 66.3497 193.506C106.384 195.108 146.486 194.014 186.549 193.506C268.66 192.467 271.255 62.0021 188.218 59.9518C147.048 58.9352 105.86 57.7405 64.6803 58.2824Z" fill="#4ad1ff" fill-rule="nonzero" opacity="1" stroke="#000000" stroke-linecap="butt" stroke-linejoin="miter" stroke-width="1.15935"/>
<path d="M2083.03 1183.48C2224.09 1184.32 2224.09 1184.32 2365.16 1185.15C2367.57 1177.92 2340.18 1103.55 2333.44 1103.35C2261.69 1101.19 2189.87 1103.35 2118.08 1103.35C2110.29 1103.35 2089.2 1171.14 2083.03 1183.48Z" fill="#4ad1ff" fill-rule="nonzero" opacity="1" stroke="#000000" stroke-linecap="butt" stroke-linejoin="miter" stroke-width="1.15935"/>
<path d="M1373.52 195.176C1391.92 176.771 1400.24 145.628 1413.58 123.39C1436.18 85.7333 1457.38 45.8094 1477.02 6.52991C1407.46 5.97343 1337.9 4.30842 1268.34 4.86048C1264.53 4.89076 1278.57 27.4691 1280.03 29.902C1288.22 43.561 1295.2 57.9688 1303.4 71.6378C1327.5 111.8 1345.38 157.663 1373.52 195.176Z" fill="#4ad1ff" fill-rule="nonzero" opacity="1" stroke="#000000" stroke-linecap="butt" stroke-linejoin="miter" stroke-width="1.15935"/>
<path d="M2224.93 807.858C2214.85 806.108 2215.56 831.285 2211.57 841.247C2196.69 878.441 2184.56 914.617 2169.84 951.429C2160.59 974.546 2151 997.915 2143.12 1021.55C2142.62 1023.06 2138.72 1029.77 2144.79 1029.89C2198.21 1030.98 2251.65 1030.98 2305.06 1029.89C2311.42 1029.76 2307.36 1020.1 2306.73 1018.21C2298.85 994.576 2289.27 971.207 2280.02 948.09C2267.2 916.04 2256.11 883.308 2243.29 851.263C2237.95 837.906 2239.24 810.344 2224.93 807.858Z" fill="#4ad1ff" fill-rule="nonzero" opacity="1" stroke="#000000" stroke-linecap="butt" stroke-linejoin="miter" stroke-width="1.15935"/>
<path d="M994.555 78.3156C976 96.8704 954.04 179.826 944.472 208.531C940.51 220.417 917.618 267.917 919.43 276.978C919.739 278.522 921.196 280.282 922.769 280.317C971.727 281.405 1020.72 281.405 1069.68 280.317C1071.25 280.282 1071.91 278.091 1073.02 276.978C1050.71 232.361 1036.63 180.175 1017.93 133.407C1011.31 116.873 1007.25 91.0125 994.555 78.3156Z" fill="#4ad1ff" fill-rule="nonzero" opacity="1" stroke="#000000" stroke-linecap="butt" stroke-linejoin="miter" stroke-width="1.15935"/>
<path d="M3098.04 185.159C3109.61 177.444 3114.31 148.662 3119.74 135.076C3136.74 92.5907 3155.35 49.9535 3169.83 6.52991C3145.34 5.97343 3120.53 0.834126 3096.37 4.86048C3088.61 6.15426 3085.15 15.8996 3079.68 21.5548C3068.45 33.1515 3057.36 44.8712 3046.29 56.6129C3039 64.3483 3031.29 71.7337 3024.59 79.985C3021.9 83.289 3042 106.373 3044.62 110.035C3062.47 135.03 3079.61 160.58 3098.04 185.159Z" fill="#4ad1ff" fill-rule="nonzero" opacity="1" stroke="#000000" stroke-linecap="butt" stroke-linejoin="miter" stroke-width="1.15935"/>
<path d="M1345.14 530.732C1300.87 575.003 1260.25 649.711 1224.94 702.684C1231.49 711.425 1227.28 709.523 1238.29 709.361C1273.35 708.846 1308.42 708.77 1343.47 707.692C1344.92 707.647 1350.1 703.957 1350.14 702.684C1351.21 674.88 1350.42 647.035 1350.14 619.212C1349.86 590.828 1350.08 562.411 1348.47 534.071C1348.39 532.499 1346.25 531.845 1345.14 530.732Z" fill="#4ad1ff" fill-rule="nonzero" opacity="1" stroke="#000000" stroke-linecap="butt" stroke-linejoin="miter" stroke-width="1.15935"/>
<path d="M2872.67 510.699C2865.7 503.73 2855.49 510.135 2847.63 504.021C2822.68 484.62 2772.7 463.161 2782.52 423.888C2786.57 407.689 2811.44 401.639 2822.58 392.169C2846.27 372.036 2844.23 362.174 2860.98 345.425C2867.8 338.609 2878.34 345.028 2886.02 340.417C2902.46 330.554 2905.61 323.274 2921.08 338.747C2928.39 335.091 2949.8 345.766 2956.14 352.103C2965.41 345.147 2961.39 349.48 2967.83 338.747C2954.5 325.422 2924.45 317.045 2906.06 317.045C2892.93 317.045 2878.91 312.036 2865.99 312.036C2813.23 312.036 2752.47 396.159 2752.47 445.591C2752.47 460.068 2828.12 501.78 2842.62 509.029C2850.69 513.066 2866.22 517.144 2872.67 510.699Z" fill="#3ebde7" fill-rule="nonzero" opacity="1" stroke="#000000" stroke-linecap="butt" stroke-linejoin="miter" stroke-width="1.15935"/>
<path d="M1420.26 679.312C1428.2 675.344 1454.76 672.357 1458.66 662.617C1464.76 647.349 1452.92 623.173 1450.31 607.526C1443.53 566.841 1440.55 518.582 1436.95 478.98C1435.35 461.373 1441.39 402.553 1425.27 397.177C1425.27 376.915 1425.55 359.215 1423.6 338.747C1423.15 334.052 1412.18 327.53 1411.91 335.408C1410.84 366.553 1411.66 397.735 1411.91 428.897C1412.22 466.183 1413.11 503.463 1413.58 540.749C1414.12 583.598 1414.19 626.456 1415.25 669.295C1415.41 675.604 1416.6 675.651 1420.26 679.312Z" fill="#4ad1ff" fill-rule="nonzero" opacity="1" stroke="#000000" stroke-linecap="butt" stroke-linejoin="miter" stroke-width="1.15935"/>
<path d="M807.578 629.229C794.302 635.866 781.865 651.532 765.842 652.601C750.84 653.601 735.611 651.876 720.768 654.27C717.66 654.771 717.099 660.022 714.09 660.948C692.812 667.495 663.27 649.999 645.643 667.626C650.186 672.168 652.787 669.761 657.329 674.303C638.605 693.028 605.52 681.694 585.544 697.675C583.333 699.444 578.469 700.222 580.535 704.353C584.354 711.991 593.019 705.151 598.899 711.031C587.813 727.66 554.308 721.266 548.816 737.742C542.803 737.742 530.01 748.773 540.469 751.097C553.651 754.027 635.482 714.803 637.296 709.361C647.166 709.361 660.298 696.764 669.015 696.006C692.299 693.981 715.811 697.561 739.131 696.006C744.943 695.619 752.267 686.044 759.165 684.32C783.181 678.316 806.435 674.572 809.248 649.262C810.792 635.36 821.01 646.018 807.578 629.229Z" fill="#b5e9ff" fill-rule="nonzero" opacity="1" stroke="#000000" stroke-linecap="butt" stroke-linejoin="miter" stroke-width="1.15935"/>
<path d="M3308.39 539.079C3297.99 549.479 3301.18 578.182 3296.7 592.501C3294.91 598.248 3260.71 632.081 3254.97 635.906C3245.14 642.456 3235.15 652.821 3223.25 640.915C3221.58 641.749 3221.58 641.749 3219.91 642.584C3215.33 638.001 3217.07 640.738 3214.9 634.237C3202.3 634.237 3194.14 635.724 3181.51 632.567C3175.01 630.942 3172.48 622.209 3166.49 619.212C3165.37 618.656 3164.26 620.325 3163.15 620.881C3157.26 614.995 3135.55 606.747 3129.76 612.534C3137.08 619.855 3148.7 617.56 3156.47 624.22C3170.25 636.029 3171.17 662.713 3193.2 664.287C3207.64 665.318 3222.15 665.175 3236.6 665.956C3246.07 666.468 3257.55 669.75 3266.65 664.287C3279.52 656.565 3313.62 592.79 3315.07 592.501C3324.36 590.643 3333.99 594.727 3343.45 594.171C3351.86 593.676 3445.05 585.595 3411.89 552.435C3389.89 563.435 3374.08 577.017 3346.79 572.468C3339.63 571.274 3332.71 553.387 3328.42 549.096C3324.35 545.028 3313.67 544.359 3308.39 539.079Z" fill="#43a8cc" fill-rule="nonzero" opacity="1" stroke="#000000" stroke-linecap="butt" stroke-linejoin="miter" stroke-width="1.15935"/>
<path d="M345.145 796.172C346.815 797.841 346.815 797.841 348.484 799.511C334.407 813.588 307.952 819.823 291.723 829.561C282.387 835.163 268.781 827.461 260.004 836.238C262.508 838.743 262.508 838.743 265.012 841.247C257.428 851.36 249.228 845.709 239.971 851.263C199.169 875.744 171.898 863.444 126.449 861.28C109.659 860.48 95.9116 845.073 81.3746 859.61C84.6569 866.175 89.6994 867.98 83.044 874.635C90.0304 881.622 148.977 904.764 161.507 901.346C167.214 899.79 167.506 889.616 173.193 887.991C179.079 886.309 185.507 888.922 191.557 887.991C196.628 887.211 198.376 879.597 203.243 877.974C224.385 870.927 238.395 879.518 260.004 877.974C279.524 876.58 302.766 850.465 316.765 839.577C325.167 833.042 333.353 844.064 341.806 841.247C353.77 837.259 346.074 827.688 346.815 819.544C347.403 813.075 368.516 806.525 371.856 801.18C380.748 786.952 349.848 791.469 345.145 796.172Z" fill="#94e1ff" fill-rule="nonzero" opacity="1" stroke="#000000" stroke-linecap="butt" stroke-linejoin="miter" stroke-width="1.15935"/>
<path d="M2002.89 849.594C2004.56 851.263 2004.56 851.263 2006.23 852.933C1993.92 865.242 1975.97 873.558 1959.49 876.305C1949 878.053 1929.73 869.194 1927.77 879.644C1926.33 887.301 1926.8 895.285 1927.77 903.016C1929.25 914.867 1956.42 897.85 1957.82 909.693C1958.93 919.154 1954.42 931.338 1961.16 938.074C1963.66 935.57 1963.66 935.57 1966.17 933.066C1973.09 937.68 1976.72 944.187 1984.53 948.09C1992.23 940.385 1986.86 934.068 1994.55 926.388C1981.52 913.367 1986 898.531 1999.55 887.991C2004.55 884.105 2012.06 886.782 2017.92 884.652C2046.91 874.108 2065.11 845.791 2093.04 832.9C2111.24 824.501 2140.38 808.346 2149.8 789.494C2144.4 784.095 2135.13 785.189 2128.1 787.825C2121.49 790.302 2111.47 805.317 2104.73 809.527C2099.36 812.882 2094.77 811.183 2088.03 812.866C2082.65 814.212 2045.56 837.006 2039.62 841.247C2030.22 847.959 2011.98 840.508 2002.89 849.594Z" fill="#94e1ff" fill-rule="nonzero" opacity="1" stroke="#000000" stroke-linecap="butt" stroke-linejoin="miter" stroke-width="1.15935"/>
<path d="M527.113 851.701C537.403 867.135 547.937 862.352 565.51 865.056C582.087 867.606 609.433 896.278 618.932 905.122C650.522 934.534 655.718 968.199 667.346 1006.96C670.335 1016.92 699.258 1019.33 705.743 1023.65C717.59 1031.55 739.18 1045.34 754.156 1040.35C754.156 1030.69 766.301 1029.12 757.495 1020.31C750.486 1027.32 705.805 1016.22 695.726 1003.62C689.384 995.691 692.648 990.157 690.718 978.577C690.083 974.769 682.987 974.948 680.701 971.9C675.959 965.577 678.393 959.067 675.693 951.867C672.891 944.395 670.13 952.983 665.676 945.189C662.246 939.186 662.923 926.426 658.999 920.147C641.778 892.594 612.146 874.184 587.213 861.717C574.287 855.254 540.626 838.187 527.113 851.701Z" fill="#94e1ff" fill-rule="nonzero" opacity="1" stroke="#000000" stroke-linecap="butt" stroke-linejoin="miter" stroke-width="1.15935"/>
<path d="M2538.78 2.49261C2538.22 32.5424 2536.57 62.5919 2537.11 92.642C2537.14 94.2157 2539.34 94.8679 2540.45 95.9809C2559.43 77.0005 2577.53 57.4527 2595.54 37.5507C2609.53 22.0882 2629.97 2.79541 2622.25 2.49261C2594.45 1.40231 2566.6 2.49261 2538.78 2.49261Z" fill="#4ad1ff" fill-rule="nonzero" opacity="1" stroke="#000000" stroke-linecap="butt" stroke-linejoin="miter" stroke-width="1.15935"/>
<path d="M2971.16 4.86048C2970.61 34.9103 2968.96 64.9597 2969.49 95.0099C2969.52 96.5836 2971.72 97.2358 2972.83 98.3488C2998.76 72.4263 3039.81 39.5256 3056.31 6.52991C3013.73 5.6952 3013.73 5.6952 2971.16 4.86048Z" fill="#4ad1ff" fill-rule="nonzero" opacity="1" stroke="#000000" stroke-linecap="butt" stroke-linejoin="miter" stroke-width="1.15935"/>
<path d="M163.177 891.33C164.012 892.999 164.012 892.999 164.846 894.669C162.342 897.173 162.342 897.173 159.838 899.677C165.014 904.852 174.468 901.13 181.541 903.016C192.171 905.85 186.736 914.71 188.218 921.379C192.274 939.632 183.191 936.423 171.524 948.09C174.72 954.483 223.277 956.992 224.946 953.099C228.76 944.199 218.774 935.898 226.615 928.057C224.389 923.605 224.389 925.831 226.615 921.379C224.946 919.71 224.946 919.71 223.276 918.041C224.111 916.371 224.111 916.371 224.946 914.702C199.847 889.603 256.3 885.017 263.343 877.974C252.253 866.884 212.843 871.714 198.235 874.635C191.289 876.025 198.558 883.575 191.557 884.652C178.387 886.678 171.744 882.762 163.177 891.33Z" fill="#b5e9ff" fill-rule="nonzero" opacity="1" stroke="#000000" stroke-linecap="butt" stroke-linejoin="miter" stroke-width="1.15935"/>
<path d="M949.48 350.433C965.741 366.694 948.008 447.68 949.48 475.641C949.606 478.039 957.861 480.683 959.497 482.318C963.896 477.919 961.723 470.076 962.835 463.955C963.753 458.907 970.307 456.723 972.852 452.269C983.077 434.375 983.57 402.069 982.869 383.822C982.308 369.241 975.023 324.891 949.48 350.433Z" fill="#94e1ff" fill-rule="nonzero" opacity="1" stroke="#000000" stroke-linecap="butt" stroke-linejoin="miter" stroke-width="1.15935"/>
<path d="M805.909 630.898C816.288 641.278 797.365 656.676 809.248 662.617C816.235 666.111 893.802 596.427 896.058 594.171C887.7 585.813 885.296 591.932 881.033 579.146C847.507 579.146 828.314 606.253 805.909 630.898Z" fill="#94e1ff" fill-rule="nonzero" opacity="1" stroke="#000000" stroke-linecap="butt" stroke-linejoin="miter" stroke-width="1.15935"/>
<path d="M2740.78 333.739C2732.39 342.132 2737.7 337.375 2724.09 347.094C2730.21 359.346 2719.91 444.762 2719.08 445.591C2722.64 452.717 2712.44 471.976 2722.42 473.971C2735.28 476.544 2743.18 448.847 2744.12 442.252C2746.35 426.668 2754.14 411.47 2754.14 395.508C2754.14 383.591 2747.52 369.21 2745.79 357.111C2744.56 348.528 2747.34 340.293 2740.78 333.739Z" fill="#94e1ff" fill-rule="nonzero" opacity="1" stroke="#000000" stroke-linecap="butt" stroke-linejoin="miter" stroke-width="1.15935"/>
<path d="M3184.85 44.9269C3179 50.7783 3154.26 120.086 3156.47 126.729C3175.39 126.729 3194.34 127.779 3213.23 126.729C3214.8 126.642 3215.99 124.852 3216.57 123.39C3218.68 118.112 3189.81 48.2324 3184.85 44.9269Z" fill="#4ad1ff" fill-rule="nonzero" opacity="1" stroke="#000000" stroke-linecap="butt" stroke-linejoin="miter" stroke-width="1.15935"/>
<path d="M2754.14 44.9269C2749.87 49.1941 2721.43 118.435 2722.42 123.39C2722.73 124.934 2724.19 126.642 2725.76 126.729C2744.65 127.779 2763.63 127.779 2782.52 126.729C2784.09 126.642 2784.74 124.503 2785.86 123.39C2774.57 100.824 2772.43 63.2213 2754.14 44.9269Z" fill="#4ad1ff" fill-rule="nonzero" opacity="1" stroke="#000000" stroke-linecap="butt" stroke-linejoin="miter" stroke-width="1.15935"/>
<path d="M1458.66 654.27C1445.64 667.285 1433.78 665.829 1420.26 675.973C1419 676.917 1417.12 677.75 1416.92 679.312C1415.81 688.215 1411.3 705.538 1420.26 706.023C1439.71 707.074 1459.24 707.074 1478.69 706.023C1480.26 705.938 1480.92 703.797 1482.03 702.684C1477.6 693.825 1472.01 687.656 1465.33 679.312C1467 676.807 1467 676.807 1468.67 674.303C1460.65 666.281 1465.46 661.078 1458.66 654.27Z" fill="#6ad7ff" fill-rule="nonzero" opacity="1" stroke="#000000" stroke-linecap="butt" stroke-linejoin="miter" stroke-width="1.15935"/>
</g>
<g id="Calque-2" vectornator:layerName="Calque 2"/>
</svg>
