<?xml version="1.0" encoding="UTF-8" standalone="no"?>
<!DOCTYPE svg PUBLIC "-//W3C//DTD SVG 1.1//EN" "http://www.w3.org/Graphics/SVG/1.1/DTD/svg11.dtd">
<!-- Created with Vectornator (http://vectornator.io/) -->
<svg height="100%" stroke-miterlimit="10" style="fill-rule:nonzero;clip-rule:evenodd;stroke-linecap:round;stroke-linejoin:round;" version="1.1" viewBox="0 0 6350 800" width="100%" xml:space="preserve" xmlns="http://www.w3.org/2000/svg" xmlns:vectornator="http://vectornator.io" xmlns:xlink="http://www.w3.org/1999/xlink">
<defs/>
<clipPath id="ArtboardFrame">
<rect height="800" width="6350" x="0" y="0"/>
</clipPath>
<g clip-path="url(#ArtboardFrame)" id="Calque-1" vectornator:layerName="Calque 1">
<path d="M3133.28 529.765C3115.92 536.068 3084.25 540.534 3074.36 529.765C3051.11 529.765 2975.84 518.244 2956.51 525.261C3029.09 551.612 3084.59 586.203 3148.79 615.339C3233.32 584.647 3297.33 544.546 3372.08 510.623C3379.79 507.124 3440.27 476.943 3443.41 476.844C3487.69 475.446 3532.36 476.127 3576.76 476.844C3579.68 476.891 3582.91 478.034 3582.97 479.096C3584.99 516.621 3580.94 554.168 3582.97 591.694C3583.02 592.755 3587.1 593.195 3589.17 593.946C3612.51 589.708 3651.4 596.723 3679.1 591.694C3703.43 587.278 3724.99 578.336 3744.23 573.678C3758.97 570.11 3785.45 573.151 3800.05 569.174C3834.77 559.721 3875.11 555.548 3911.7 548.906C3942.9 543.242 3957.63 536.292 3992.33 533.143C4001.14 532.343 4049.93 476.947 4057.46 476.844C4110.14 476.122 4162.94 476.122 4215.62 476.844C4224.74 476.969 4234.43 492.224 4237.33 494.859C4259.57 515.048 4280.21 535.469 4302.46 555.662C4391.58 636.557 4487.07 716.204 4562.97 798.874C4693.22 799.437 4693.22 799.437 4823.47 800C4809.52 789.866 4759.36 778.976 4739.74 771.85C4686.57 752.548 4659.84 713.358 4659.1 687.402C4657.14 617.969 4654.98 548.531 4656 479.096C4656.02 478.034 4659.28 476.889 4662.21 476.844C4708.68 476.126 4755.29 476.126 4801.76 476.844C4804.68 476.889 4807.93 478.034 4807.97 479.096C4810.01 548.902 4806.96 618.718 4807.97 688.528C4808.78 745.33 4966.75 776.861 5108.79 763.969C5201.68 755.537 5262.89 722.441 5263.85 688.528C5265.82 618.72 5263.88 548.899 5266.95 479.096C5267 478.034 5270.23 476.889 5273.16 476.844C5319.63 476.126 5366.24 476.126 5412.71 476.844C5415.63 476.889 5418.88 478.034 5418.91 479.096C5420.96 548.152 5419.89 617.217 5418.91 686.276C5418.25 733.706 5349.83 771.24 5248.35 798.874C5440.62 799.437 5440.62 799.437 5632.9 800C5633.94 693.032 5631.91 586.054 5636 479.096C5636.31 471.002 5746.15 473.317 5781.76 476.844C5784.58 477.123 5787.94 478.034 5787.97 479.096C5790.02 585.686 5787.97 692.281 5787.97 798.874C6067.08 799.437 6067.08 799.437 6346.19 800C6346.19 592.82 6346.19 592.82 6346.19 385.639C6297.8 394.424 6200.57 408.198 6153.91 394.647C6142.18 398.908 6150.3 405.092 6141.51 410.411C6109.05 430.056 6085.57 448.694 6017.46 448.694C5990.56 448.694 5963.66 448.264 5936.83 447.568C5931.87 447.44 5919.04 445.411 5915.12 444.19C5894.59 437.802 5896.02 429.376 5877.9 422.797C5881 421.671 5881 421.671 5884.1 420.545C5917.07 432.514 5955.75 426.29 5983.35 436.308C5986.45 435.745 5986.45 435.745 5989.55 435.182C6015.93 444.762 6036.62 435.099 6054.67 429.552C6072.4 424.107 6117.95 409.729 6129.1 403.655C6146.22 394.336 6125.64 375.638 6147.71 367.624C6152.36 369.313 6152.36 369.313 6157.02 371.002C6186.79 365.597 6198.13 387.818 6219.04 389.017C6281.82 392.616 6301.62 375.505 6346.19 375.505C6346.19 355.238 6346.19 355.238 6346.19 334.97C6332.54 333.731 6311.03 334.589 6302.78 331.592C6285.29 334.767 6271.1 329.1 6259.36 324.836C6230.24 330.121 6140.31 314.013 6101.19 328.214C6109.03 331.06 6106.09 329.517 6110.5 332.718C6107.4 333.844 6107.4 333.844 6104.29 334.97C6041.36 312.12 6000.45 301.191 5905.81 301.191C5897.76 301.191 5895.22 302.785 5890.31 304.569C5893.41 305.695 5893.41 305.695 5896.51 306.821C5881.07 312.427 5848.83 308.367 5831.38 314.702C5840.51 318.016 5847.07 315.893 5856.19 319.206C5841.35 324.594 5821.41 318.323 5806.57 323.71C5809.67 324.836 5809.67 324.836 5812.78 325.962C5809.67 327.088 5809.67 327.088 5806.57 328.214C5787.4 324.733 5767.67 324.42 5760.05 332.718C5756.95 332.155 5756.95 332.155 5753.85 331.592C5749.2 333.281 5749.2 333.281 5744.55 334.97C5675.99 322.525 5626.29 357.214 5583.28 367.624C5580.18 366.498 5580.18 366.498 5577.08 365.372C5597.24 358.052 5638.2 341.259 5648.41 333.844C5643.76 332.155 5643.76 332.155 5639.1 330.466C5610.5 335.659 5586.74 337.135 5558.47 343.978C5555.37 342.852 5555.37 342.852 5552.27 341.726C5572.74 330.578 5609.59 333.299 5632.9 324.836C5602.15 313.673 5555.66 331.698 5527.46 321.458C5543.21 315.741 5571.32 320.171 5589.48 313.577C5579.48 309.942 5565.9 306.598 5552.27 309.073C5549.17 307.947 5549.17 307.947 5546.07 306.821C5549.17 305.695 5549.17 305.695 5552.27 304.569C5571.37 308.037 5603.3 301.703 5626.7 310.199C5650.08 301.711 5623.31 295.355 5611.19 286.553C5614.29 285.427 5614.29 285.427 5617.4 284.301C5632.42 289.755 5670.76 309.964 5691.83 302.317C5686.35 298.341 5695.35 276.212 5691.83 268.537C5689.37 263.19 5665.07 252.355 5676.32 248.27C5737.18 259.318 5693.4 280.368 5732.14 294.435C5740.17 291.519 5738.97 288.576 5747.65 285.427C5753.85 287.679 5753.85 287.679 5760.05 289.931C5778.2 283.344 5769.48 285.773 5784.86 282.049C5779.99 278.508 5787.78 258.212 5791.07 255.026C5794.82 251.395 5811.83 249.74 5818.98 247.144C5804.33 239.167 5816.73 240.08 5840.69 231.38C5885.05 239.433 5885.67 217.3 5899.61 212.238C5911.59 216.589 5935.76 210.372 5946.13 206.608C5917.01 196.035 6060.66 145.194 6085.69 137.924C6082.59 136.798 6082.59 136.798 6079.48 135.672C6097.92 122.288 6060.62 127.958 6026.76 126.664C6016.68 126.278 6004.31 109.503 5995.75 106.396C5962.44 118.49 5897.34 127.088 5877.9 143.553C5871.69 148.819 5894.76 153.243 5902.71 158.191C5912.86 164.508 5913.97 184.095 5912.02 190.845C5911.71 191.9 5907.88 192.346 5905.81 193.097C5892.6 189.498 5881.76 183.538 5890.31 177.333C5887.21 176.207 5887.21 176.207 5884.1 175.081C5901.25 162.63 5837.61 163.667 5825.18 160.443C5808.97 156.24 5817.39 155.364 5806.57 151.435C5808.12 150.309 5808.12 150.309 5809.67 149.183C5790.61 142.263 5747.71 153.68 5725.94 155.939C5708.8 157.717 5686.4 153.238 5673.22 157.065C5651.9 163.256 5637.5 180.439 5617.4 184.089C5578.13 191.216 5563.55 188.639 5536.76 203.23C5509.83 193.451 5533.14 182.664 5555.37 176.207C5553.82 175.081 5553.82 175.081 5552.27 173.955C5568.31 168.132 5578.75 142.427 5608.09 142.427C5625.69 142.427 5754.06 135.522 5756.95 133.42C5772.2 122.345 5694.81 128.414 5685.62 124.412C5646.9 107.541 5616.52 87.9551 5580.18 70.3648C5558.98 78.0612 5528.03 83.7332 5518.16 94.0103C5508.96 103.579 5520.08 114.302 5518.16 124.412C5517.02 130.402 5465.73 130.243 5465.43 124.412C5463.4 84.634 5465.43 44.8425 5465.43 5.0579C5423.57 4.49491 5423.57 4.49491 5381.7 3.93192C5380.67 44.0919 5381.64 84.2653 5378.6 124.412C5378.15 130.307 5326.18 130.275 5325.88 124.412C5323.85 84.634 5325.88 44.8425 5325.88 5.0579C5237.49 4.49491 5237.49 4.49491 5149.1 3.93192C5149.1 25.3516 5215.43 70.3254 5239.04 91.7584C5248.51 100.352 5278.1 117.902 5270.05 126.664C5243.37 126.664 5230.21 130.645 5217.33 124.412C5210.73 121.216 5206.38 103.219 5192.52 103.018C5142.94 102.298 5093.2 101.96 5043.66 103.018C5014.44 103.642 5054.79 130.806 4969.23 126.664C4953.55 125.905 4986.88 98.8174 4990.94 95.1363C5024.12 65.0226 5059.26 35.3584 5087.08 5.0579C5041.59 4.68257 4995.61 1.46647 4950.62 3.93192C4937.61 4.64492 4931.84 10.6247 4922.71 14.0657C4904.96 20.7594 4887.56 27.5775 4869.99 34.3334C4852.42 41.0893 4833.85 47.5206 4817.27 54.601C4813.38 56.264 4844.57 69.4716 4848.28 71.4907C4880.52 89.0467 4924.66 105.561 4950.62 124.412C4894.08 144.942 4808.47 85.2473 4780.05 71.4907C4758.35 78.9973 4727.16 84.0727 4714.93 94.0103C4703.54 103.263 4716.85 114.302 4714.93 124.412C4713.79 130.402 4662.5 130.243 4662.21 124.412C4660.18 84.634 4662.21 44.8425 4662.21 5.0579C4634.29 4.68257 4606.38 3.56998 4578.47 3.93192C4574.45 3.98412 4575.37 7.91267 4575.37 8.43584C4575.37 18.5697 4575.37 28.7035 4575.37 38.8373C4575.37 55.1319 4567.3 74.4078 4578.47 90.6324C4586 101.562 4578.46 113.202 4575.37 124.412C4573.63 130.745 4519.7 130.455 4519.55 124.412C4518.53 84.6271 4521.62 44.8425 4522.65 5.0579C3984.06 4.68257 3445.48 3.55731 2906.89 3.93192C2896.89 3.93887 2866.41 29.5528 2860.37 33.2074C2808.42 64.6463 2762.61 97.9946 2711.51 128.916C2678.52 148.881 2614.47 176.887 2624.67 200.978C2625.96 204.006 2657.74 208.291 2664.99 212.238C2687.88 224.703 2709.6 243.675 2717.71 258.403C2731.02 282.558 2724.22 314.966 2733.22 339.474C2738.48 353.812 2788.36 359.96 2798.35 373.253C2807.24 385.091 2828.9 393.988 2835.56 403.655C2847.23 420.605 2847.84 434.937 2857.27 453.198C2858.72 455.999 2868.6 455.439 2872.78 456.576C2879.23 458.334 2880.92 469.954 2882.08 471.214C2885.03 474.423 2891.73 472.998 2897.59 474.592C2922.8 481.459 2929.98 498.838 2965.81 502.741C3020.75 508.725 3084.2 516.399 3133.28 529.765Z" fill="#4ad1ff" fill-rule="nonzero" opacity="1" stroke="#000000" stroke-linecap="butt" stroke-linejoin="miter" stroke-width="1.15935"/>
<path d="M491.004 3.93192C498.054 11.6105 534.467 17.4601 549.928 23.0736C569.444 30.1591 582.849 40.6993 590.245 50.0971C602.826 66.0845 605.751 81.6775 605.751 98.5143C605.751 112.075 588.68 128.5 565.434 139.05C451.027 190.972 298.807 171.18 125.055 178.459C122.15 178.581 118.917 179.649 118.852 180.711C116.831 214.107 117.95 247.521 118.852 280.923C119.016 286.975 129.23 298.316 112.65 298.939C85.9148 299.943 58.8841 298.668 32.0168 298.939C21.6317 299.043 11.3417 299.689 1.00417 300.065C-0.546458 550.032-0.546458 550.032-2.09709 800C1354.71 800 1354.71 800 2711.51 800C2712.54 706.919 2715.64 613.838 2714.61 520.757C2714.55 515.156 2637.68 514.796 2637.08 520.757C2635.09 540.636 2639.07 560.555 2637.08 580.434C2636.97 581.495 2633.8 582.629 2630.88 582.686C2609.44 583.106 2516.83 591.335 2516.13 578.182C2515.14 559.415 2516.92 540.6 2513.03 521.883C2512.7 520.295 2508.11 518.542 2503.73 518.505C2418.97 517.781 2334.18 519.118 2249.42 519.631C2210.13 519.869 2170.86 521.113 2131.57 520.757C2128.65 520.73 2125.71 519.559 2125.37 518.505C2121.75 507.316 2120.45 495.972 2122.27 484.726C2122.92 480.713 2186.39 451.685 2196.7 446.442C2265.72 411.361 2332.38 375.363 2398.28 339.474C2412.86 331.533 2487.77 298.32 2488.22 291.057C2490.38 255.783 2488.78 220.472 2485.12 185.215C2484.18 176.155 2436.82 156.367 2423.09 148.057C2366.36 113.728 2312.37 78.804 2255.62 44.4672C2249.36 40.6739 2192.24 3.95532 2190.5 3.93192C2108.89 2.83449 2027.16 3.93192 1945.5 3.93192C1937.95 12.151 1995.73 55.1532 2007.52 65.8608C2069.05 121.709 2128.97 177.781 2190.5 233.632C2202.35 244.387 2257.37 284.655 2249.42 293.309C2202.9 293.309 2156.29 294.362 2109.86 293.309C2102.83 293.149 2050.3 234.929 2038.54 234.758C1964.16 233.678 1889.65 234.028 1815.24 234.758C1812.32 234.787 1810.13 236.024 1809.04 237.01C1802.7 242.763 1817.13 252.444 1818.35 258.403C1823.19 282.148 1820.86 290.275 1790.43 307.947C1783.34 312.068 1788.69 317.588 1778.03 321.458C1759.87 314.866 1774.2 296.405 1774.93 287.679C1775.9 276.043 1778.03 264.415 1778.03 252.774C1778.03 248.983 1785.59 236.394 1768.73 235.884C1731.51 234.758 1680.41 228.674 1657.08 239.262C1645.05 244.721 1611.27 295.349 1598.16 295.561C1553.75 296.277 1509.21 296.277 1464.8 295.561C1461.88 295.514 1459.91 294.258 1458.6 293.309C1455.26 290.884 1524.59 227.779 1533.03 220.12C1610.98 149.369 1689.95 77.3476 1756.32 5.0579C1519.07 4.49491 1519.07 4.49491 1281.83 3.93192C1288.17 10.8371 1325.53 18.6743 1337.65 23.0736C1393.6 43.386 1397.99 86.3265 1381.07 110.9C1369.52 127.668 1334.51 148.29 1294.23 157.065C1283.62 159.377 1225.72 166.79 1229.11 171.703C1237.48 183.871 1270.1 198.009 1288.03 208.86C1333.27 236.235 1378.97 264.762 1418.28 293.309C1416.21 294.06 1415 295.519 1412.08 295.561C1361.46 296.281 1310.69 296.62 1260.12 295.561C1255.74 295.469 1253.55 293.426 1250.81 292.183C1193.16 266.019 1175.11 228.51 1120.56 202.104C1112.2 198.056 1093.58 175.496 1080.24 175.081C1046.26 174.023 1012.01 174.878 977.903 175.081C948.943 175.253 919.887 175.161 891.067 176.207C888.158 176.313 884.938 177.398 884.865 178.459C882.85 207.725 884.865 237.01 884.865 266.285C884.865 275.676 889 285.052 887.966 294.435C887.849 295.496 884.679 296.608 881.764 296.687C855.99 297.38 830.068 296.458 804.232 296.687C785.601 296.852 748.887 302.325 748.409 295.561C741.577 198.812 746.725 101.855 742.207 5.0579C616.605 4.49491 616.605 4.49491 491.004 3.93192Z" fill="#4ad1ff" fill-rule="nonzero" opacity="1" stroke="#000000" stroke-linecap="butt" stroke-linejoin="miter" stroke-width="1.15935"/>
<path d="M2869.67 566.922C2867.61 567.673 2863.5 568.113 2863.47 569.174C2861.42 645.737 2863.47 722.307 2863.47 798.874C3147.24 799.437 3147.24 799.437 3431 800C3432.04 723.058 3435.13 646.116 3434.1 569.174C3434.09 568.112 3429.97 567.673 3427.9 566.922C3323.02 605.002 3241.52 654.325 3148.79 696.41C3043.98 658.358 2962.37 608.992 2869.67 566.922Z" fill="#4ad1ff" fill-rule="nonzero" opacity="1" stroke="#000000" stroke-linecap="butt" stroke-linejoin="miter" stroke-width="1.15935"/>
<path d="M6160.12 78.2466C6131.72 88.5581 6082.25 90.3383 6048.47 98.5143C6062.23 108.503 6087.8 125.13 6073.28 135.672C6076.38 136.798 6076.38 136.798 6079.48 137.924C6057.03 146.075 5905.54 194.122 5939.93 206.608C5929.81 210.282 5923.35 208.124 5912.02 212.238C5891.77 204.889 5938.4 173.401 5905.81 161.569C5917.56 153.042 5870.72 152.055 5884.1 143.553C5911.11 126.395 5965.06 121.01 6001.95 106.396C5999.89 105.27 5999.47 103.098 5995.75 103.018C5945.18 101.938 5894.4 102.298 5843.79 103.018C5828.69 103.233 5832.42 125.772 5812.78 126.664C5799.54 127.264 5761.06 124.048 5747.65 128.916C5749.2 130.042 5749.2 130.042 5750.75 131.168C5725.46 140.351 5696.93 132.132 5667.02 134.546C5649.34 135.972 5627.76 140.176 5608.09 140.176C5565.86 140.176 5568.56 165.788 5546.07 173.955C5547.62 175.081 5547.62 175.081 5549.17 176.207C5514.73 188.709 5516.2 198.905 5546.07 213.364C5549.17 212.238 5549.17 212.238 5552.27 211.112C5520.5 188.043 5595.88 191.919 5617.4 186.341C5640.18 180.433 5652.43 166.866 5673.22 159.317C5685.97 154.687 5708.1 159.317 5722.84 159.317C5775.95 159.317 5782.96 135.415 5822.08 163.821C5836.92 161.127 5887.83 167.873 5877.9 175.081C5881 176.207 5881 176.207 5884.1 177.333C5875.72 183.423 5884.62 188.781 5896.51 193.097C5883.72 202.382 5895.69 214.81 5884.1 224.624C5876.79 230.822 5774.09 231.972 5812.78 246.018C5806.05 248.46 5788.68 251.13 5784.86 253.9C5782.38 255.705 5787.97 264.498 5787.97 265.159C5787.97 273.86 5773.41 281.212 5760.05 287.679C5756.95 286.553 5756.95 286.553 5753.85 285.427C5736.24 291.822 5755.49 292.715 5729.04 302.317C5732.14 303.443 5732.14 303.443 5735.24 304.569C5762.12 295.185 5787.23 285.086 5815.88 276.419C5842.56 268.345 5840.8 294.352 5837.59 296.687C5840.69 297.813 5840.69 297.813 5843.79 298.939C5859.04 296.17 5885.91 289.643 5893.41 297.813C5923.87 297.813 5971.98 290.309 5995.75 298.939C5986.91 302.148 5991.17 300.307 5983.35 304.569C6003.12 311.748 6118.67 329.034 6101.19 341.726C6120.2 348.627 6115.1 361.414 6135.31 368.75C6128.78 373.488 6131.92 376.527 6141.51 380.009C6181.36 365.54 6130.39 343.783 6110.5 329.34C6119.54 326.058 6134.96 326.348 6147.71 325.962C6178.62 325.027 6212.24 321.527 6240.75 325.962C6255.25 328.219 6284.59 337.145 6302.78 333.844C6314.41 338.07 6328.08 334.733 6343.09 336.096C6344.13 318.831 6347.18 301.566 6346.19 284.301C6346.15 283.522 6286.81 273.736 6271.76 271.915C6271.76 262.472 6259.86 255.391 6250.05 248.27C6276.51 238.663 6236.01 228.092 6219.04 221.246C6215.94 221.809 6215.94 221.809 6212.84 222.372C6202.38 218.575 6197.73 213.901 6184.93 211.112C6171.04 208.086 6146.04 208.254 6138.41 205.482C6146.77 202.447 6163.37 198.838 6157.02 194.223C6225.18 169.474 6225.24 136.53 6225.24 103.018C6225.24 96.9662 6226.5 90.4155 6219.04 85.0025C6227.94 81.7718 6229.77 74.0017 6215.94 71.4907C6202.93 69.129 6179 81.6741 6160.12 78.2466Z" fill="#3ebde7" fill-rule="nonzero" opacity="1" stroke="#000000" stroke-linecap="butt" stroke-linejoin="miter" stroke-width="1.15935"/>
<path d="M5952.33 3.93192C5952.33 16.9516 6030.08 89.5857 6054.67 98.5143C6069.67 94.8853 6072.04 98.9647 6085.69 94.0103C6099.71 96.5552 6148.94 84.5582 6160.12 80.4986C6163.22 81.0616 6163.22 81.0616 6166.32 81.6246C6180.58 76.4473 6193.23 78.239 6209.74 73.7427C6220.46 77.6343 6224.74 80.6818 6212.84 85.0025C6228.35 96.2634 6222.14 122.073 6222.14 135.672C6222.14 139.392 6205.36 146.33 6203.53 150.309C6201.32 155.136 6212.66 160.57 6206.64 164.947C6196.68 172.176 6142.34 188.067 6153.91 196.475C6139.29 201.786 6128.29 201.274 6116.7 205.482C6145.01 215.759 6178 205.648 6212.84 224.624C6215.94 224.061 6215.94 224.061 6219.04 223.498C6236.1 229.693 6267.51 239.681 6243.85 248.27C6251.42 253.767 6245.8 255.872 6265.56 260.655C6242.85 277.148 6320.13 281.259 6343.09 285.427C6344.64 144.679 6344.64 144.679 6346.19 3.93192C6149.26 3.93192 6149.26 3.93192 5952.33 3.93192Z" fill="#4ad1ff" fill-rule="nonzero" opacity="1" stroke="#000000" stroke-linecap="butt" stroke-linejoin="miter" stroke-width="1.15935"/>
<path d="M3976.83 539.899C3961.64 545.412 3920.02 557.767 3902.4 560.166C3896.59 560.957 3889.05 558.973 3883.79 560.166C3850.71 567.672 3813.36 579.597 3784.55 588.316C3762.28 595.052 3723.68 592.499 3703.92 600.701C3671.06 614.334 3710.65 622.931 3685.31 636.733C3662.6 628.489 3664.31 612.589 3632.59 609.709C3559.89 603.111 3582.97 620.648 3582.97 641.237C3582.97 693.783 3582.97 746.328 3582.97 798.874C3646.54 799.437 3646.54 799.437 3710.12 800C3770.78 733.929 3846.67 668.734 3917.9 604.079C3929.03 593.978 3988.11 546.043 3976.83 539.899Z" fill="#4ad1ff" fill-rule="nonzero" opacity="1" stroke="#000000" stroke-linecap="butt" stroke-linejoin="miter" stroke-width="1.15935"/>
<path d="M2643.28 198.727C2638.01 200.64 2626.07 200.572 2624.67 203.23C2621 210.236 2622.81 217.525 2624.67 224.624C2626.02 229.755 2638 223.837 2640.18 229.128C2643.3 236.678 2640.66 259.972 2643.28 268.537C2644.26 271.746 2657.33 273.234 2658.79 276.419C2676.66 315.351 2675.25 357.104 2683.6 398.025C2686.65 412.975 2728.81 446.917 2699.11 457.702C2710.35 461.785 2718.73 458.372 2730.12 463.332C2733.44 464.777 2750 476.686 2754.93 476.844C2787.88 477.899 2821.21 475.818 2854.17 476.844C2863.68 477.14 2941.54 518.7 2956.51 524.135C2957.55 524.512 3049.38 528.783 3058.85 529.765C3077.94 531.745 3114.66 552.301 3139.48 529.765C3147.3 522.673 3108.28 520.734 3099.17 519.631C3092.89 518.871 3093.15 514.633 3086.76 514.001C3067.16 512.06 3027.14 512.705 3009.23 508.371C3001.3 506.452 2999.55 501.704 2990.62 500.489C2979.89 499.027 2962.66 499.751 2953.41 497.111C2926.28 489.372 2873.74 462.881 2863.47 450.946C2851.36 436.879 2888.06 419.337 2854.17 407.033C2851.07 408.159 2851.07 408.159 2847.97 409.285C2819.83 399.071 2810.43 378.236 2795.24 365.372C2786.48 357.947 2754.41 355.329 2745.62 347.356C2737.42 339.911 2743.21 330.827 2739.42 322.584C2738.03 319.55 2727.27 315.532 2727.02 311.325C2724.5 269.257 2726.49 228.936 2643.28 198.727Z" fill="#94e1ff" fill-rule="nonzero" opacity="1" stroke="#000000" stroke-linecap="butt" stroke-linejoin="miter" stroke-width="1.15935"/>
<path d="M922.08 37.7113C908.288 37.7238 882.122 36.0835 881.764 41.0893C879.75 69.2293 877.843 97.4243 881.764 125.538C882.059 127.658 888.579 129.417 894.169 130.042C971.242 138.652 1055.46 129.696 1136.07 128.916C1153.32 128.749 1180.69 126.314 1194.99 122.16C1259.31 103.479 1281.56 50.6363 1176.38 41.0893C1166.03 40.1492 1149.46 38.9357 1139.17 38.8373C1066.82 38.1461 994.45 37.6457 922.08 37.7113Z" fill="#4ad1ff" fill-rule="nonzero" opacity="1" stroke="#000000" stroke-linecap="butt" stroke-linejoin="miter" stroke-width="1.15935"/>
<path d="M121.954 39.9633C119.03 39.9773 115.826 41.154 115.751 42.2152C113.737 70.7307 112.77 99.2855 115.751 127.79C115.917 129.381 120.672 131.104 125.055 131.168C199.426 132.248 273.921 131.51 348.346 131.168C500.882 130.467 505.702 42.4721 351.447 41.0893C274.966 40.4036 198.452 39.5978 121.954 39.9633Z" fill="#4ad1ff" fill-rule="nonzero" opacity="1" stroke="#000000" stroke-linecap="butt" stroke-linejoin="miter" stroke-width="1.15935"/>
<path d="M3871.38 798.874C4133.44 799.437 4133.44 799.437 4395.5 800C4399.97 795.127 4349.09 744.964 4336.57 744.827C4203.28 743.371 4069.86 744.827 3936.51 744.827C3922.03 744.827 3882.85 790.551 3871.38 798.874Z" fill="#4ad1ff" fill-rule="nonzero" opacity="1" stroke="#000000" stroke-linecap="butt" stroke-linejoin="miter" stroke-width="1.15935"/>
<path d="M2553.35 132.294C2587.54 119.88 2602.99 98.8752 2627.78 83.8765C2669.75 58.4781 2709.14 31.5507 2745.62 5.0579C2616.4 4.68257 2487.19 3.55957 2357.97 3.93192C2350.88 3.95234 2376.96 19.1807 2379.67 20.8216C2394.9 30.0342 2407.86 39.7518 2423.09 48.9711C2467.86 76.0593 2501.08 106.993 2553.35 132.294Z" fill="#4ad1ff" fill-rule="nonzero" opacity="1" stroke="#000000" stroke-linecap="butt" stroke-linejoin="miter" stroke-width="1.15935"/>
<path d="M4134.99 545.528C4116.27 544.348 4117.58 561.329 4110.18 568.048C4082.54 593.134 4060 617.534 4032.65 642.363C4015.47 657.954 3997.66 673.716 3983.03 689.654C3982.09 690.676 3974.85 695.2 3986.13 695.284C4085.35 696.019 4184.63 696.019 4283.85 695.284C4295.67 695.196 4288.13 688.681 4286.95 687.402C4272.32 671.464 4254.51 655.702 4237.33 640.111C4213.52 618.494 4192.92 596.417 4169.1 574.804C4159.18 565.795 4161.59 547.205 4134.99 545.528Z" fill="#4ad1ff" fill-rule="nonzero" opacity="1" stroke="#000000" stroke-linecap="butt" stroke-linejoin="miter" stroke-width="1.15935"/>
<path d="M1849.36 53.4751C1814.89 65.9897 1774.1 121.941 1756.32 141.302C1748.96 149.318 1706.43 181.355 1709.8 187.467C1710.37 188.508 1713.08 189.695 1716 189.719C1806.95 190.452 1897.97 190.452 1988.92 189.719C1991.84 189.695 1993.05 188.217 1995.12 187.467C1953.68 157.374 1927.53 122.176 1892.78 90.6324C1880.49 79.4808 1872.95 62.0388 1849.36 53.4751Z" fill="#4ad1ff" fill-rule="nonzero" opacity="1" stroke="#000000" stroke-linecap="butt" stroke-linejoin="miter" stroke-width="1.15935"/>
<path d="M5756.95 125.538C5778.45 120.334 5787.17 100.922 5797.27 91.7584C5828.84 63.1032 5863.42 34.3457 5890.31 5.0579C5844.82 4.68257 5798.73 1.21627 5753.85 3.93192C5739.43 4.80454 5733.01 11.3774 5722.84 15.1917C5701.99 23.0133 5681.38 30.9179 5660.81 38.8373C5647.26 44.0546 5632.95 49.0358 5620.5 54.601C5615.51 56.8295 5652.85 72.3988 5657.71 74.8687C5690.88 91.7269 5722.71 108.96 5756.95 125.538Z" fill="#4ad1ff" fill-rule="nonzero" opacity="1" stroke="#000000" stroke-linecap="butt" stroke-linejoin="miter" stroke-width="1.15935"/>
<path d="M2500.62 358.616C2418.38 388.475 2342.94 438.863 2277.33 474.592C2289.51 480.488 2281.69 479.205 2302.14 479.096C2367.27 478.748 2432.42 478.697 2497.52 477.97C2500.22 477.94 2509.84 475.45 2509.93 474.592C2511.91 455.839 2510.44 437.058 2509.93 418.293C2509.41 399.148 2509.81 379.982 2506.83 360.868C2506.66 359.808 2502.69 359.366 2500.62 358.616Z" fill="#4ad1ff" fill-rule="nonzero" opacity="1" stroke="#000000" stroke-linecap="butt" stroke-linejoin="miter" stroke-width="1.15935"/>
<path d="M5338.28 345.104C5325.34 340.404 5306.37 344.724 5291.76 340.6C5245.42 327.514 5152.57 313.041 5170.81 286.553C5178.34 275.627 5224.55 271.546 5245.24 265.159C5289.25 251.58 5285.46 244.929 5316.57 233.632C5329.24 229.035 5348.81 233.364 5363.09 230.254C5393.63 223.602 5399.47 218.692 5428.22 229.128C5441.8 226.662 5481.57 233.862 5493.35 238.136C5510.57 233.445 5503.09 236.367 5515.05 229.128C5490.3 220.14 5434.47 214.49 5400.31 214.49C5375.93 214.49 5349.87 211.112 5325.88 211.112C5227.87 211.112 5114.99 267.851 5114.99 301.191C5114.99 310.955 5255.52 339.088 5282.46 343.978C5297.46 346.701 5326.31 349.451 5338.28 345.104Z" fill="#3ebde7" fill-rule="nonzero" opacity="1" stroke="#000000" stroke-linecap="butt" stroke-linejoin="miter" stroke-width="1.15935"/>
<path d="M2640.18 458.828C2654.92 456.152 2704.27 454.137 2711.51 447.568C2722.86 437.27 2700.85 420.965 2696 410.411C2683.41 382.97 2677.88 350.421 2671.19 323.71C2668.22 311.835 2679.44 272.163 2649.48 268.537C2649.48 254.871 2650 242.933 2646.38 229.128C2645.55 225.961 2625.18 221.562 2624.67 226.876C2622.68 247.882 2624.2 268.913 2624.67 289.931C2625.25 315.08 2626.9 340.224 2627.78 365.372C2628.78 394.272 2628.91 423.178 2630.88 452.072C2631.17 456.328 2633.38 456.359 2640.18 458.828Z" fill="#4ad1ff" fill-rule="nonzero" opacity="1" stroke="#000000" stroke-linecap="butt" stroke-linejoin="miter" stroke-width="1.15935"/>
<path d="M1502.02 425.049C1477.35 429.526 1454.25 440.092 1424.48 440.812C1396.62 441.487 1368.32 440.324 1340.75 441.938C1334.98 442.276 1333.93 445.818 1328.35 446.442C1288.82 450.858 1233.94 439.057 1201.19 450.946C1209.63 454.01 1214.46 452.386 1222.9 455.45C1188.12 468.079 1126.66 460.435 1089.55 471.214C1085.44 472.406 1076.41 472.931 1080.24 475.718C1087.34 480.869 1103.44 476.256 1114.36 480.222C1093.76 491.437 1031.52 487.125 1021.32 498.237C1010.15 498.237 986.385 505.678 1005.81 507.245C1030.3 509.221 1182.32 482.766 1185.69 479.096C1204.02 479.096 1228.42 470.599 1244.61 470.088C1287.87 468.722 1331.54 471.136 1374.86 470.088C1385.66 469.826 1399.27 463.369 1412.08 462.206C1456.7 458.156 1499.89 455.631 1505.12 438.56C1507.99 429.184 1526.97 436.373 1502.02 425.049Z" fill="#b5e9ff" fill-rule="nonzero" opacity="1" stroke="#000000" stroke-linecap="butt" stroke-linejoin="miter" stroke-width="1.15935"/>
<path d="M6147.71 364.246C6128.39 371.26 6134.32 390.619 6126 400.277C6122.67 404.153 6059.13 426.973 6048.47 429.552C6030.22 433.97 6011.67 440.961 5989.55 432.93C5986.45 433.493 5986.45 433.493 5983.35 434.056C5974.83 430.965 5978.07 432.812 5974.04 428.426C5950.63 428.426 5935.47 429.429 5912.02 427.301C5899.94 426.204 5895.24 420.314 5884.1 418.293C5882.04 417.917 5879.97 419.043 5877.9 419.419C5866.97 415.448 5826.63 409.885 5815.88 413.789C5829.48 418.726 5851.06 417.178 5865.5 421.671C5891.09 429.635 5892.8 447.633 5933.72 448.694C5960.55 449.39 5987.5 449.293 6014.36 449.82C6031.94 450.165 6053.26 452.379 6070.18 448.694C6094.09 443.486 6157.43 400.472 6160.12 400.277C6177.38 399.023 6195.26 401.778 6212.84 401.403C6228.46 401.069 6401.59 395.619 6339.99 373.253C6299.12 380.673 6269.74 389.833 6219.04 386.765C6205.74 385.96 6192.9 373.896 6184.93 371.002C6177.37 368.258 6157.52 367.806 6147.71 364.246Z" fill="#43a8cc" fill-rule="nonzero" opacity="1" stroke="#000000" stroke-linecap="butt" stroke-linejoin="miter" stroke-width="1.15935"/>
<path d="M642.966 537.647C646.067 538.773 646.067 538.773 649.169 539.899C623.017 549.393 573.874 553.599 543.726 560.166C526.381 563.944 501.107 558.75 484.802 564.67C489.453 566.359 489.453 566.359 494.105 568.048C480.015 574.869 464.783 571.058 447.586 574.804C371.79 591.316 321.129 583.02 236.7 581.56C205.51 581.021 179.971 570.629 152.966 580.434C159.064 584.861 168.431 586.079 156.067 590.568C169.046 595.28 278.55 610.888 301.827 608.583C312.429 607.534 312.97 600.672 323.536 599.576C334.47 598.441 346.411 600.203 357.65 599.576C367.07 599.049 370.317 593.914 379.359 592.82C418.633 588.066 444.658 593.861 484.802 592.82C521.063 591.879 564.239 574.266 590.245 566.922C605.853 562.515 621.06 569.949 636.764 568.048C658.988 565.358 644.692 558.903 646.067 553.41C647.16 549.047 686.381 544.629 692.586 541.025C709.106 531.428 651.703 534.474 642.966 537.647Z" fill="#94e1ff" fill-rule="nonzero" opacity="1" stroke="#000000" stroke-linecap="butt" stroke-linejoin="miter" stroke-width="1.15935"/>
<path d="M3722.52 573.678C3725.62 574.804 3725.62 574.804 3728.73 575.93C3705.86 584.232 3672.5 589.841 3641.89 591.694C3622.41 592.872 3586.61 586.898 3582.97 593.946C3580.3 599.11 3581.17 604.495 3582.97 609.709C3585.72 617.702 3636.2 606.225 3638.79 614.213C3640.86 620.594 3632.48 628.812 3644.99 633.355C3649.64 631.666 3649.64 631.666 3654.29 629.977C3667.15 633.089 3673.91 637.478 3688.41 640.111C3702.72 634.914 3692.75 630.653 3707.02 625.473C3682.83 616.691 3691.15 606.684 3716.32 599.576C3725.6 596.955 3739.55 598.76 3750.43 597.324C3804.3 590.212 3838.1 571.113 3889.99 562.418C3923.8 556.754 3977.92 545.858 3995.43 533.143C3985.4 529.501 3968.17 530.239 3955.12 532.017C3942.85 533.688 3924.22 543.814 3911.7 546.654C3901.73 548.917 3893.19 547.771 3880.69 548.906C3870.69 549.814 3801.78 565.188 3790.75 568.048C3773.29 572.575 3739.4 567.55 3722.52 573.678Z" fill="#94e1ff" fill-rule="nonzero" opacity="1" stroke="#000000" stroke-linecap="butt" stroke-linejoin="miter" stroke-width="1.15935"/>
<path d="M981.004 575.099C1000.12 585.509 1019.69 582.283 1052.33 584.107C1083.13 585.827 1133.93 605.165 1151.57 611.13C1210.26 630.967 1219.91 653.673 1241.51 679.815C1247.06 686.535 1300.79 688.159 1312.84 691.075C1334.85 696.402 1374.95 705.702 1402.78 702.335C1402.78 695.821 1425.34 694.762 1408.98 688.823C1395.96 693.55 1312.96 686.061 1294.23 677.563C1282.45 672.216 1288.51 668.484 1284.93 660.673C1283.75 658.104 1270.57 658.225 1266.32 656.169C1257.51 651.905 1262.03 647.514 1257.02 642.658C1251.81 637.619 1246.68 643.411 1238.41 638.154C1232.04 634.105 1233.29 625.499 1226 621.264C1194.01 602.68 1138.97 590.263 1092.65 581.855C1068.64 577.496 1006.11 565.985 981.004 575.099Z" fill="#94e1ff" fill-rule="nonzero" opacity="1" stroke="#000000" stroke-linecap="butt" stroke-linejoin="miter" stroke-width="1.15935"/>
<path d="M4718.03 2.33486C4717 22.6025 4713.93 42.8699 4714.93 63.1378C4714.98 64.1992 4719.06 64.6391 4721.13 65.3898C4756.39 52.5881 4790.02 39.4037 4823.47 25.9805C4849.46 15.5514 4887.44 2.53909 4873.09 2.33486C4821.44 1.59949 4769.72 2.33486 4718.03 2.33486Z" fill="#4ad1ff" fill-rule="nonzero" opacity="1" stroke="#000000" stroke-linecap="butt" stroke-linejoin="miter" stroke-width="1.15935"/>
<path d="M5521.26 3.93192C5520.22 24.1996 5517.16 44.467 5518.16 64.7349C5518.21 65.7963 5522.29 66.2362 5524.36 66.9868C5572.51 49.5029 5648.77 27.3124 5679.42 5.0579C5600.34 4.49491 5600.34 4.49491 5521.26 3.93192Z" fill="#4ad1ff" fill-rule="nonzero" opacity="1" stroke="#000000" stroke-linecap="butt" stroke-linejoin="miter" stroke-width="1.15935"/>
<path d="M304.928 601.827C306.479 602.953 306.479 602.953 308.029 604.079C303.378 605.768 303.378 605.768 298.726 607.457C308.34 610.948 325.904 608.437 339.042 609.709C358.789 611.621 348.694 617.596 351.447 622.095C358.982 634.406 342.109 632.241 320.435 640.111C326.372 644.422 416.575 646.115 419.675 643.489C426.76 637.486 408.21 631.888 422.776 626.599C418.641 623.596 418.641 625.098 422.776 622.095C419.675 620.969 419.675 620.969 416.574 619.843C418.124 618.717 418.124 618.717 419.675 617.591C373.05 600.663 477.92 597.57 491.004 592.82C470.403 585.34 397.192 588.597 370.055 590.568C357.151 591.505 370.655 596.597 357.65 597.324C333.184 598.69 320.844 596.049 304.928 601.827Z" fill="#b5e9ff" fill-rule="nonzero" opacity="1" stroke="#000000" stroke-linecap="butt" stroke-linejoin="miter" stroke-width="1.15935"/>
<path d="M1765.62 237.01C1795.83 247.977 1762.89 302.6 1765.62 321.458C1765.86 323.076 1781.19 324.859 1784.23 325.962C1792.4 322.995 1788.37 317.705 1790.43 313.577C1792.14 310.172 1804.31 308.699 1809.04 305.695C1828.04 293.626 1828.95 271.836 1827.65 259.529C1826.61 249.695 1813.07 219.782 1765.62 237.01Z" fill="#94e1ff" fill-rule="nonzero" opacity="1" stroke="#000000" stroke-linecap="butt" stroke-linejoin="miter" stroke-width="1.15935"/>
<path d="M1498.92 426.175C1518.2 433.175 1483.04 443.561 1505.12 447.568C1518.1 449.925 1662.19 402.925 1666.38 401.403C1650.86 395.766 1646.39 399.893 1638.47 391.269C1576.19 391.269 1540.54 409.552 1498.92 426.175Z" fill="#94e1ff" fill-rule="nonzero" opacity="1" stroke="#000000" stroke-linecap="butt" stroke-linejoin="miter" stroke-width="1.15935"/>
<path d="M5093.28 225.75C5077.69 231.411 5087.55 228.202 5062.27 234.758C5073.65 243.022 5054.51 300.631 5052.97 301.191C5059.58 305.997 5040.63 318.987 5059.17 320.332C5083.06 322.067 5097.73 303.387 5099.48 298.939C5103.62 288.428 5118.09 278.177 5118.09 267.411C5118.09 259.374 5105.8 249.674 5102.59 241.514C5100.31 235.725 5105.46 230.171 5093.28 225.75Z" fill="#94e1ff" fill-rule="nonzero" opacity="1" stroke="#000000" stroke-linecap="butt" stroke-linejoin="miter" stroke-width="1.15935"/>
<path d="M5918.22 30.9554C5907.35 34.902 5861.38 81.6478 5865.5 86.1285C5900.64 86.1285 5935.85 86.8363 5970.94 86.1285C5973.86 86.0696 5976.06 84.8622 5977.14 83.8765C5981.06 80.3166 5927.43 33.1849 5918.22 30.9554Z" fill="#4ad1ff" fill-rule="nonzero" opacity="1" stroke="#000000" stroke-linecap="butt" stroke-linejoin="miter" stroke-width="1.15935"/>
<path d="M5118.09 30.9554C5110.16 33.8336 5057.33 80.5343 5059.17 83.8765C5059.74 84.9175 5062.45 86.0696 5065.37 86.1285C5100.46 86.8363 5135.72 86.8363 5170.81 86.1285C5173.73 86.0696 5174.95 84.6272 5177.02 83.8765C5156.06 68.6565 5152.08 43.2944 5118.09 30.9554Z" fill="#4ad1ff" fill-rule="nonzero" opacity="1" stroke="#000000" stroke-linecap="butt" stroke-linejoin="miter" stroke-width="1.15935"/>
<path d="M2711.51 441.938C2687.33 450.716 2665.31 449.735 2640.18 456.576C2637.84 457.213 2634.34 457.775 2633.98 458.828C2631.91 464.833 2623.54 476.517 2640.18 476.844C2676.31 477.553 2712.6 477.553 2748.73 476.844C2751.64 476.786 2752.86 475.342 2754.93 474.592C2746.7 468.616 2736.32 464.456 2723.92 458.828C2727.02 457.139 2727.02 457.139 2730.12 455.45C2715.21 450.039 2724.16 446.53 2711.51 441.938Z" fill="#6ad7ff" fill-rule="nonzero" opacity="1" stroke="#000000" stroke-linecap="butt" stroke-linejoin="miter" stroke-width="1.15935"/>
</g>
<g id="Calque-2" vectornator:layerName="Calque 2"/>
</svg>
