<?xml version="1.0" encoding="UTF-8" standalone="no"?>
<!DOCTYPE svg PUBLIC "-//W3C//DTD SVG 1.1//EN" "http://www.w3.org/Graphics/SVG/1.1/DTD/svg11.dtd">
<!-- Created with Vectornator (http://vectornator.io/) -->
<svg height="100%" stroke-miterlimit="10" style="fill-rule:nonzero;clip-rule:evenodd;stroke-linecap:round;stroke-linejoin:round;" version="1.1" viewBox="0 0 1024 1024" width="100%" xml:space="preserve" xmlns="http://www.w3.org/2000/svg" xmlns:vectornator="http://vectornator.io" xmlns:xlink="http://www.w3.org/1999/xlink">
<defs/>
<g id="Calque-1" vectornator:layerName="Calque 1">
<path d="M315.5 285.5C287.886 285.5 265.5 307.886 265.5 335.5L265.5 735.5C265.5 763.114 287.886 785.5 315.5 785.5L715.5 785.5C743.114 785.5 765.5 763.114 765.5 735.5L765.5 335.5C765.5 307.886 743.114 285.5 715.5 285.5L315.5 285.5ZM332 335.5L692 335.5C703.046 335.5 712 344.454 712 355.5L712 715.5C712 726.546 703.046 735.5 692 735.5L332 735.5C320.954 735.5 312 726.546 312 715.5L312 355.5C312 344.454 320.954 335.5 332 335.5Z" fill="#ffffff" fill-rule="nonzero" opacity="1" stroke="#000000" stroke-linecap="butt" stroke-linejoin="miter" stroke-width="1.15935"/>
<path d="M765.5 248C765.5 219.557 788.557 196.5 817 196.5C845.443 196.5 868.5 219.557 868.5 248C868.5 276.443 845.443 299.5 817 299.5C788.557 299.5 765.5 276.443 765.5 248Z" fill="#ffffff" fill-rule="nonzero" opacity="1" stroke="#000000" stroke-linecap="butt" stroke-linejoin="miter" stroke-width="1.15935" vectornator:layerName="Ovale 1"/>
<path d="M348.312 408C348.312 398.335 356.147 390.5 365.812 390.5L400.812 390.5C410.477 390.5 418.312 398.335 418.312 408L418.312 443C418.312 452.665 410.477 460.5 400.812 460.5L365.812 460.5C356.147 460.5 348.312 452.665 348.312 443L348.312 408Z" fill="#ffffff" fill-rule="nonzero" opacity="1" stroke="#000000" stroke-linecap="butt" stroke-linejoin="miter" stroke-width="1.15935" vectornator:layerName="Rectangle 4"/>
<path d="M348.312 518C348.312 508.335 356.147 500.5 365.812 500.5L400.812 500.5C410.477 500.5 418.312 508.335 418.312 518L418.312 553C418.312 562.665 410.477 570.5 400.812 570.5L365.812 570.5C356.147 570.5 348.312 562.665 348.312 553L348.312 518Z" fill="#ffffff" fill-rule="nonzero" opacity="1" stroke="#000000" stroke-linecap="butt" stroke-linejoin="miter" stroke-width="1.15935" vectornator:layerName="Rectangle 5"/>
<path d="M348.312 636.253C348.312 626.588 356.147 618.753 365.812 618.753L400.812 618.753C410.477 618.753 418.312 626.588 418.312 636.253L418.312 671.253C418.312 680.918 410.477 688.753 400.812 688.753L365.812 688.753C356.147 688.753 348.312 680.918 348.312 671.253L348.312 636.253Z" fill="#ffffff" fill-rule="nonzero" opacity="1" stroke="#000000" stroke-linecap="butt" stroke-linejoin="miter" stroke-width="1.15935" vectornator:layerName="Rectangle 6"/>
<path d="M441.5 408C441.5 398.335 449.335 390.5 459 390.5L669.5 390.5C679.165 390.5 687 398.335 687 408L687 443C687 452.665 679.165 460.5 669.5 460.5L459 460.5C449.335 460.5 441.5 452.665 441.5 443L441.5 408Z" fill="#ffffff" fill-rule="nonzero" opacity="1" stroke="#000000" stroke-linecap="butt" stroke-linejoin="miter" stroke-width="1.15935" vectornator:layerName="Rectangle 7"/>
<path d="M441.5 518C441.5 508.335 449.335 500.5 459 500.5L669.5 500.5C679.165 500.5 687 508.335 687 518L687 553C687 562.665 679.165 570.5 669.5 570.5L459 570.5C449.335 570.5 441.5 562.665 441.5 553L441.5 518Z" fill="#ffffff" fill-rule="nonzero" opacity="1" stroke="#000000" stroke-linecap="butt" stroke-linejoin="miter" stroke-width="1.15935" vectornator:layerName="Rectangle 8"/>
<path d="M441.5 636.253C441.5 626.588 449.335 618.753 459 618.753L669.5 618.753C679.165 618.753 687 626.588 687 636.253L687 671.253C687 680.918 679.165 688.753 669.5 688.753L459 688.753C449.335 688.753 441.5 680.918 441.5 671.253L441.5 636.253Z" fill="#ffffff" fill-rule="nonzero" opacity="1" stroke="#000000" stroke-linecap="butt" stroke-linejoin="miter" stroke-width="1.15935" vectornator:layerName="Rectangle 9"/>
</g>
</svg>
